<?xml version="1.0" encoding="UTF-8" standalone="no"?>
<!-- Created with Inkscape (http://www.inkscape.org/) -->

<svg
   xmlns:dc="http://purl.org/dc/elements/1.1/"
   xmlns:cc="http://creativecommons.org/ns#"
   xmlns:rdf="http://www.w3.org/1999/02/22-rdf-syntax-ns#"
   xmlns:svg="http://www.w3.org/2000/svg"
   xmlns="http://www.w3.org/2000/svg"
   xmlns:sodipodi="http://sodipodi.sourceforge.net/DTD/sodipodi-0.dtd"
   xmlns:inkscape="http://www.inkscape.org/namespaces/inkscape"
   width="96"
   height="96"
   viewBox="0 0 96 96"
   id="svg5865"
   version="1.1"
   inkscape:version="0.91 r13725"
   sodipodi:docname="button.svg">
  <defs
     id="defs5867" />
  <sodipodi:namedview
     id="base"
     pagecolor="#ffffff"
     bordercolor="#666666"
     borderopacity="1.0"
     inkscape:pageopacity="0.0"
     inkscape:pageshadow="2"
     inkscape:zoom="1.979899"
     inkscape:cx="239.73866"
     inkscape:cy="-90.582918"
     inkscape:document-units="px"
     inkscape:current-layer="svg5865"
     showgrid="false"
     units="px"
     inkscape:window-width="1858"
     inkscape:window-height="1177"
     inkscape:window-x="1912"
     inkscape:window-y="-8"
     inkscape:window-maximized="1" />
  <metadata
     id="metadata5870">
    <rdf:RDF>
      <cc:Work
         rdf:about="">
        <dc:format>image/svg+xml</dc:format>
        <dc:type
           rdf:resource="http://purl.org/dc/dcmitype/StillImage" />
        <dc:title></dc:title>
      </cc:Work>
    </rdf:RDF>
  </metadata>
  <path
     d="M 22.40039,-5.0000003e-7 C 10.04839,-5.0000003e-7 0,10.046436 0,22.398436 0,34.75044 10.04839,44.79883 22.40039,44.79883 l 51.19922,0 C 85.95161,44.79883 96,34.75044 96,22.398436 96,10.046436 85.95161,-5.0000003e-7 73.59961,-5.0000003e-7 l -51.19922,0 z m 0,3.19921900000003 51.19922,0 c 10.5872,0 19.20117,8.6120175 19.20117,19.1992175 0,10.587204 -8.61397,19.201174 -19.20117,19.201174 l -51.19922,0 c -10.5872,0 -19.19922,-8.61397 -19.19922,-19.201174 0,-10.5872 8.61202,-19.1992175 19.19922,-19.1992175 z m 51.19922,3.199218 c -8.8224,0 -16,7.1775995 -16,15.9999995 0,8.8224 7.1776,16.000004 16,16.000004 8.8224,0 16,-7.177604 16,-16.000004 0,-8.8224 -7.1776,-15.9999995 -16,-15.9999995 z m 0,3.201172 c 7.0576,0 12.80078,5.7412275 12.80078,12.7988275 0,7.0576 -5.74318,12.800784 -12.80078,12.800784 -7.0576,0 -12.79883,-5.743184 -12.79883,-12.800784 0,-7.0576 5.74123,-12.7988275 12.79883,-12.7988275 z M 22.40039,51.19922 c -3.0432,0 -5.9438,0.6167 -8.5918,1.7207 -0.016,0.006 -0.03282,0.0112 -0.04882,0.0176 C 5.68617,56.3247 0,64.30841 0,73.59961 0,85.95161 10.04839,96 22.40039,96 l 51.19922,0 c 3.0432,0 5.9438,-0.6167 8.5918,-1.720699 0.016,-0.006 0.03247,-0.0112 0.04687,-0.0176 C 90.31348,90.87452 96,82.89081 96,73.59961 96,64.30841 90.31383,56.3247 82.24023,52.9375 c -0.016,-0.006 -0.03282,-0.0112 -0.04882,-0.0176 -2.648,-1.104 -5.5486,-1.7207 -8.5918,-1.7207 l -51.19922,0 z m 0,3.19922 C 22.40039,55.28164 23.1168,56 24,56 c 0.8832,0 1.59961,-0.71836 1.59961,-1.60156 l 6.40039,0 C 32,55.28164 32.71641,56 33.59961,56 c 0.8832,0 1.60156,-0.71836 1.60156,-1.60156 l 6.39844,0 c 0,0.8832 0.71836,1.60156 1.60156,1.60156 0.8832,0 1.59961,-0.71836 1.59961,-1.60156 l 6.40039,0 c 0,0.8832 0.71641,1.60156 1.59961,1.60156 0.8832,0 1.59961,-0.71836 1.59961,-1.60156 l 6.40039,0 C 60.80078,55.28164 61.51719,56 62.40039,56 63.28359,56 64,55.28164 64,54.39844 l 6.40039,0 C 70.40039,55.28164 71.1168,56 72,56 c 0.8832,0 1.59961,-0.71836 1.59961,-1.60156 4.328,0 8.31294,1.45686 11.52734,3.88086 -0.1904,0.264 -0.32617,0.56952 -0.32617,0.91992 0,0.8832 0.71641,1.59961 1.59961,1.59961 0.4192,0 0.79137,-0.16924 1.07617,-0.43164 0.8576,0.8992 1.62683,1.88239 2.29883,2.933591 C 89.67139,63.51358 89.59961,63.7456 89.59961,64 c 0,0.8176 0.62366,1.464551 1.41406,1.560551 1.12097,2.41718 1.76623,5.09585 1.7832,7.92578 A 1.6,1.6 0 0 0 91.20117,72 a 1.6,1.6 0 0 0 -1.60156,1.599611 1.6,1.6 0 0 0 1.60156,1.59961 1.6,1.6 0 0 0 1.59961,-1.59961 c 0,2.871999 -0.65111,5.58751 -1.78711,8.03711 -0.7904,0.096 -1.41406,0.7449 -1.41406,1.5625 0,0.2544 0.07213,0.48642 0.17773,0.69922 -0.672,1.0528 -1.44122,2.03439 -2.29882,2.93359 -0.2864,-0.2624 -0.65893,-0.43359 -1.07813,-0.43359 -0.8832,0 -1.59961,0.71836 -1.59961,1.60156 0,0.3504 0.13577,0.65592 0.32617,0.91992 -3.2144,2.424 -7.19934,3.87891 -11.52734,3.87891 0,-0.8832 -0.71641,-1.599611 -1.59961,-1.599611 -0.8832,0 -1.59961,0.71641 -1.59961,1.599611 l -6.40039,0 c 0,-0.8832 -0.71641,-1.599611 -1.59961,-1.599611 -0.8832,0 -1.59961,0.71641 -1.59961,1.599611 l -6.40039,0 c 0,-0.8832 -0.71641,-1.599611 -1.59961,-1.599611 -0.8832,0 -1.59961,0.71641 -1.59961,1.599611 l -6.40039,0 c 0,-0.8832 -0.71641,-1.599611 -1.59961,-1.599611 -0.8832,0 -1.60156,0.71641 -1.60156,1.599611 l -6.39844,0 c 0,-0.8832 -0.71836,-1.599611 -1.60156,-1.599611 -0.8832,0 -1.59961,0.71641 -1.59961,1.599611 l -6.40039,0 c 0,-0.8832 -0.71641,-1.599611 -1.59961,-1.599611 -0.8832,0 -1.59961,0.71641 -1.59961,1.599611 -4.328,0 -8.31294,-1.454911 -11.52734,-3.87891 0.1904,-0.264 0.32812,-0.56952 0.32812,-0.91992 0,-0.8832 -0.71836,-1.60156 -1.60156,-1.60156 -0.4192,0 -0.79137,0.17119 -1.07617,0.43359 -3.25913,-3.41606 -5.2772,-8.01849 -5.31446,-13.0918 a 1.6,1.6 0 0 0 1.5918,1.45899 1.6,1.6 0 0 0 1.59961,-1.59961 A 1.6,1.6 0 0 0 4.80078,72 1.6,1.6 0 0 0 3.20117,73.599611 c 0,-2.872 0.65111,-5.58946 1.78711,-8.03906 C 5.77868,65.464551 6.40039,64.8176 6.40039,64 c 0,-0.2544 -0.07213,-0.48642 -0.17773,-0.699219 0.672,-1.0528 1.44122,-2.034391 2.29882,-2.933591 0.2864,0.262401 0.65893,0.43164 1.07813,0.43164 0.8832,0 1.60156,-0.71641 1.60156,-1.59961 0,-0.3504 -0.13772,-0.65592 -0.32812,-0.91992 3.2144,-2.424 7.19934,-3.88086 11.52734,-3.88086 z m -16,19.20117 c 0,7.2768 4.88838,13.42302 11.55078,15.35742 l 0.002,0 c 0.29279,0.3808 0.73124,0.64258 1.24804,0.64258 0.2736,0 0.51854,-0.0874 0.74414,-0.20899 0.8016,0.1232 1.61828,0.20899 2.45508,0.20899 1.7584,0 3.4453,-0.29587 5.0293,-0.82227 0.2752,0.4832 0.77589,0.82227 1.37109,0.82227 0.8832,0 1.59961,-0.71641 1.59961,-1.59961 0,-0.1792 -0.04876,-0.34426 -0.10156,-0.50586 3.1344,-1.7888 5.60503,-4.60038 6.95703,-7.98438 C 37.5455,79.81056 37.94923,80 38.40043,80 c 0.8832,0 1.59961,-0.71836 1.59961,-1.60156 0,-0.8832 -0.71641,-1.59961 -1.59961,-1.59961 -0.12,0 -0.22589,0.0428 -0.33789,0.0684 0.2192,-1.056 0.33789,-2.14758 0.33789,-3.26758 0,-1.12 -0.11869,-2.21353 -0.33789,-3.26953 0.112,0.0256 0.21789,0.0684 0.33789,0.0684 0.8832,0 1.59961,-0.71641 1.59961,-1.59961 0,-0.8832 -0.71641,-1.59961 -1.59961,-1.59961 -0.4512,0 -0.85528,0.18943 -1.14648,0.49023 -0.5248,-1.3152 -1.22375,-2.5398 -2.06055,-3.6582 0,-0.0112 0.0059,-0.02 0.0059,-0.0312 0,-0.7936 -0.5873,-1.42403 -1.3457,-1.54883 -1.0464,-1.0752 -2.24464,-2.00085 -3.55665,-2.74805 0.0544,-0.1616 0.10352,-0.3247 0.10352,-0.5039 0,-0.8832 -0.71836,-1.59961 -1.60156,-1.59961 -0.5952,0 -1.09394,0.33906 -1.36914,0.82226 -1.584,-0.5264 -3.2709,-0.82226 -5.0293,-0.82226 -0.8368,0 -1.65348,0.0838 -2.45508,0.20703 -0.2256,-0.1216 -0.47249,-0.20703 -0.74609,-0.20703 -0.5168,0 -0.95525,0.25982 -1.24805,0.64062 -6.6624,1.9344 -11.55078,8.08258 -11.55078,15.35938 z m 32,-16 a 1.6,1.6 0 0 0 -1.59961,1.59961 1.6,1.6 0 0 0 1.59961,1.59961 A 1.6,1.6 0 0 0 40,59.19922 1.6,1.6 0 0 0 38.40039,57.59961 Z m 9.59961,0 A 1.6,1.6 0 0 0 46.40039,59.19922 1.6,1.6 0 0 0 48,60.79883 1.6,1.6 0 0 0 49.59961,59.19922 1.6,1.6 0 0 0 48,57.59961 Z m 9.59961,0 A 1.6,1.6 0 0 0 56,59.19922 a 1.6,1.6 0 0 0 1.59961,1.59961 1.6,1.6 0 0 0 1.60156,-1.59961 1.6,1.6 0 0 0 -1.60156,-1.59961 z m 9.60156,0 a 1.6,1.6 0 0 0 -1.60156,1.59961 1.6,1.6 0 0 0 1.60156,1.59961 1.6,1.6 0 0 0 1.59961,-1.59961 1.6,1.6 0 0 0 -1.59961,-1.59961 z m 9.59961,0 a 1.6,1.6 0 0 0 -1.59961,1.59961 1.6,1.6 0 0 0 1.59961,1.59961 1.6,1.6 0 0 0 1.59961,-1.59961 1.6,1.6 0 0 0 -1.59961,-1.59961 z m -54.40039,3.19922 c 7.0576,0 12.80078,5.74318 12.80078,12.80078 0,7.0576 -5.74318,12.79883 -12.80078,12.79883 -7.0576,0 -12.80078,-5.74123 -12.80078,-12.79883 0,-7.0576 5.74318,-12.80078 12.80078,-12.80078 z m 20.80078,1.59961 A 1.6,1.6 0 0 0 41.59961,64 1.6,1.6 0 0 0 43.20117,65.59961 1.6,1.6 0 0 0 44.80078,64 1.6,1.6 0 0 0 43.20117,62.39844 Z m 9.59961,0 A 1.6,1.6 0 0 0 51.20117,64 1.6,1.6 0 0 0 52.80078,65.59961 1.6,1.6 0 0 0 54.40039,64 1.6,1.6 0 0 0 52.80078,62.39844 Z m 9.59961,0 A 1.6,1.6 0 0 0 60.80078,64 1.6,1.6 0 0 0 62.40039,65.59961 1.6,1.6 0 0 0 64,64 1.6,1.6 0 0 0 62.40039,62.39844 Z m 9.59961,0 A 1.6,1.6 0 0 0 70.40039,64 1.6,1.6 0 0 0 72,65.59961 1.6,1.6 0 0 0 73.59961,64 1.6,1.6 0 0 0 72,62.39844 Z m 9.59961,0 A 1.6,1.6 0 0 0 80,64 1.6,1.6 0 0 0 81.59961,65.59961 1.6,1.6 0 0 0 83.20117,64 1.6,1.6 0 0 0 81.59961,62.39844 Z M 48,67.19922 A 1.6,1.6 0 0 0 46.40039,68.79883 1.6,1.6 0 0 0 48,70.39844 1.6,1.6 0 0 0 49.59961,68.79883 1.6,1.6 0 0 0 48,67.19922 Z m 9.59961,0 A 1.6,1.6 0 0 0 56,68.79883 a 1.6,1.6 0 0 0 1.59961,1.59961 1.6,1.6 0 0 0 1.60156,-1.59961 1.6,1.6 0 0 0 -1.60156,-1.59961 z m 9.60156,0 a 1.6,1.6 0 0 0 -1.60156,1.59961 1.6,1.6 0 0 0 1.60156,1.59961 1.6,1.6 0 0 0 1.59961,-1.59961 1.6,1.6 0 0 0 -1.59961,-1.59961 z m 9.59961,0 a 1.6,1.6 0 0 0 -1.59961,1.59961 1.6,1.6 0 0 0 1.59961,1.59961 1.6,1.6 0 0 0 1.59961,-1.59961 1.6,1.6 0 0 0 -1.59961,-1.59961 z m 9.59961,0 a 1.6,1.6 0 0 0 -1.59961,1.59961 1.6,1.6 0 0 0 1.59961,1.59961 A 1.6,1.6 0 0 0 88,68.79883 1.6,1.6 0 0 0 86.40039,67.19922 Z M 43.20117,72 a 1.6,1.6 0 0 0 -1.60156,1.59961 1.6,1.6 0 0 0 1.60156,1.59961 1.6,1.6 0 0 0 1.59961,-1.59961 A 1.6,1.6 0 0 0 43.20117,72 Z m 9.59961,0 a 1.6,1.6 0 0 0 -1.59961,1.59961 1.6,1.6 0 0 0 1.59961,1.59961 1.6,1.6 0 0 0 1.59961,-1.59961 A 1.6,1.6 0 0 0 52.80078,72 Z m 9.59961,0 a 1.6,1.6 0 0 0 -1.59961,1.59961 1.6,1.6 0 0 0 1.59961,1.59961 A 1.6,1.6 0 0 0 64,73.59961 1.6,1.6 0 0 0 62.40039,72 Z M 72,72 A 1.6,1.6 0 0 0 70.40039,73.59961 1.6,1.6 0 0 0 72,75.19922 1.6,1.6 0 0 0 73.59961,73.59961 1.6,1.6 0 0 0 72,72 Z m 9.59961,0 A 1.6,1.6 0 0 0 80,73.59961 1.6,1.6 0 0 0 81.59961,75.19922 1.6,1.6 0 0 0 83.20117,73.59961 1.6,1.6 0 0 0 81.59961,72 Z M 48,76.79883 A 1.6,1.6 0 0 0 46.40039,78.39844 1.6,1.6 0 0 0 48,80 1.6,1.6 0 0 0 49.59961,78.39844 1.6,1.6 0 0 0 48,76.79883 Z m 9.59961,0 A 1.6,1.6 0 0 0 56,78.39844 1.6,1.6 0 0 0 57.59961,80 1.6,1.6 0 0 0 59.20117,78.39844 1.6,1.6 0 0 0 57.59961,76.79883 Z m 9.60156,0 A 1.6,1.6 0 0 0 65.59961,78.39844 1.6,1.6 0 0 0 67.20117,80 1.6,1.6 0 0 0 68.80078,78.39844 1.6,1.6 0 0 0 67.20117,76.79883 Z m 9.59961,0 A 1.6,1.6 0 0 0 75.20117,78.39844 1.6,1.6 0 0 0 76.80078,80 1.6,1.6 0 0 0 78.40039,78.39844 1.6,1.6 0 0 0 76.80078,76.79883 Z m 9.59961,0 A 1.6,1.6 0 0 0 84.80078,78.39844 1.6,1.6 0 0 0 86.40039,80 1.6,1.6 0 0 0 88,78.39844 1.6,1.6 0 0 0 86.40039,76.79883 Z m -43.19922,4.80078 a 1.6,1.6 0 0 0 -1.60156,1.59961 1.6,1.6 0 0 0 1.60156,1.599611 1.6,1.6 0 0 0 1.59961,-1.599611 1.6,1.6 0 0 0 -1.59961,-1.59961 z m 9.59961,0 a 1.6,1.6 0 0 0 -1.59961,1.59961 1.6,1.6 0 0 0 1.59961,1.599611 1.6,1.6 0 0 0 1.59961,-1.599611 1.6,1.6 0 0 0 -1.59961,-1.59961 z m 9.59961,0 a 1.6,1.6 0 0 0 -1.59961,1.59961 1.6,1.6 0 0 0 1.59961,1.599611 A 1.6,1.6 0 0 0 64,83.19922 1.6,1.6 0 0 0 62.40039,81.59961 Z m 9.59961,0 A 1.6,1.6 0 0 0 70.40039,83.19922 1.6,1.6 0 0 0 72,84.79883 1.6,1.6 0 0 0 73.59961,83.19922 1.6,1.6 0 0 0 72,81.59961 Z m 9.59961,0 A 1.6,1.6 0 0 0 80,83.19922 a 1.6,1.6 0 0 0 1.59961,1.59961 1.6,1.6 0 0 0 1.60156,-1.59961 1.6,1.6 0 0 0 -1.60156,-1.59961 z M 38.40039,86.39844 A 1.6,1.6 0 0 0 36.80078,88 1.6,1.6 0 0 0 38.40039,89.599611 1.6,1.6 0 0 0 40,88 1.6,1.6 0 0 0 38.40039,86.39844 Z m 9.59961,0 A 1.6,1.6 0 0 0 46.40039,88 1.6,1.6 0 0 0 48,89.59961 1.6,1.6 0 0 0 49.59961,88 1.6,1.6 0 0 0 48,86.39844 Z m 9.59961,0 A 1.6,1.6 0 0 0 56,88 1.6,1.6 0 0 0 57.59961,89.59961 1.6,1.6 0 0 0 59.20117,88 1.6,1.6 0 0 0 57.59961,86.39844 Z m 9.60156,0 A 1.6,1.6 0 0 0 65.59961,88 1.6,1.6 0 0 0 67.20117,89.599611 1.6,1.6 0 0 0 68.80078,88 1.6,1.6 0 0 0 67.20117,86.39844 Z m 9.59961,0 A 1.6,1.6 0 0 0 75.20117,88 1.6,1.6 0 0 0 76.80078,89.599611 1.6,1.6 0 0 0 78.40039,88 1.6,1.6 0 0 0 76.80078,86.39844 Z"
     id="path8699"
     inkscape:connector-curvature="0" />
</svg>
