<?xml version="1.0" encoding="UTF-8" standalone="no"?>
<!-- Created with Inkscape (http://www.inkscape.org/) -->

<svg
   xmlns:dc="http://purl.org/dc/elements/1.1/"
   xmlns:cc="http://creativecommons.org/ns#"
   xmlns:rdf="http://www.w3.org/1999/02/22-rdf-syntax-ns#"
   xmlns:svg="http://www.w3.org/2000/svg"
   xmlns="http://www.w3.org/2000/svg"
   xmlns:sodipodi="http://sodipodi.sourceforge.net/DTD/sodipodi-0.dtd"
   xmlns:inkscape="http://www.inkscape.org/namespaces/inkscape"
   width="96"
   height="96"
   viewBox="0 0 96 96"
   id="svg4139"
   version="1.1"
   inkscape:version="0.91 r13725"
   sodipodi:docname="colorpalette.svg">
  <defs
     id="defs4141" />
  <sodipodi:namedview
     id="base"
     pagecolor="#ffffff"
     bordercolor="#666666"
     borderopacity="1.0"
     inkscape:pageopacity="0.0"
     inkscape:pageshadow="2"
     inkscape:zoom="1.4"
     inkscape:cx="-288.19442"
     inkscape:cy="297.49503"
     inkscape:document-units="px"
     inkscape:current-layer="svg4139"
     showgrid="false"
     units="px"
     inkscape:window-width="1858"
     inkscape:window-height="1177"
     inkscape:window-x="1912"
     inkscape:window-y="-8"
     inkscape:window-maximized="1" />
  <metadata
     id="metadata4144">
    <rdf:RDF>
      <cc:Work
         rdf:about="">
        <dc:format>image/svg+xml</dc:format>
        <dc:type
           rdf:resource="http://purl.org/dc/dcmitype/StillImage" />
        <dc:title></dc:title>
      </cc:Work>
    </rdf:RDF>
  </metadata>
  <path
     inkscape:connector-curvature="0"
     d="M 48,0 C 21.33333,0 0,21.33333 0,48 c 0,26.66667 21.33333,48 48,48 4.26667,0 8,-3.73333 8,-8 0,-2.13333 -0.53333,-3.73333 -2.13333,-5.33333 -1.06667,-1.6 -2.13334,-3.2 -2.13334,-5.33334 0,-4.26666 3.73355,-8 8,-8 l 9.6,0 C 84.26667,69.33333 96,57.6 96,42.66667 96,19.2 74.66667,0 48,0 Z M 18.66667,48 c -4.26667,0 -8,-3.73333 -8,-8 0,-4.26667 3.73333,-8 8,-8 4.26666,0 8,3.73333 8,8 0,4.26667 -3.73334,8 -8,8 z m 16,-21.33333 c -4.26667,0 -8,-3.73334 -8,-8 0,-4.26667 3.73333,-8 8,-8 4.26666,0 8,3.73333 8,8 0,4.26666 -3.73334,8 -8,8 z m 26.66666,0 c -4.26666,0 -8,-3.73334 -8,-8 0,-4.26667 3.73334,-8 8,-8 4.26667,0 8,3.73333 8,8 0,4.26666 -3.73333,8 -8,8 z m 16,21.33333 c -4.26666,0 -8,-3.73333 -8,-8 0,-4.26667 3.73334,-8 8,-8 4.26667,0 8,3.73333 8,8 0,4.26667 -3.73333,8 -8,8 z"
     id="path5455" />
</svg>
