<?xml version="1.0" encoding="UTF-8" standalone="no"?>
<!-- Created with Inkscape (http://www.inkscape.org/) -->

<svg
   xmlns:dc="http://purl.org/dc/elements/1.1/"
   xmlns:cc="http://creativecommons.org/ns#"
   xmlns:rdf="http://www.w3.org/1999/02/22-rdf-syntax-ns#"
   xmlns:svg="http://www.w3.org/2000/svg"
   xmlns="http://www.w3.org/2000/svg"
   xmlns:sodipodi="http://sodipodi.sourceforge.net/DTD/sodipodi-0.dtd"
   xmlns:inkscape="http://www.inkscape.org/namespaces/inkscape"
   width="96"
   height="96"
   viewBox="0 0 96.000001 96.000002"
   id="svg2"
   version="1.1"
   inkscape:version="0.91 r13725"
   sodipodi:docname="config.svg">
  <defs
     id="defs4" />
  <sodipodi:namedview
     id="base"
     pagecolor="#ffffff"
     bordercolor="#666666"
     borderopacity="1.0"
     inkscape:pageopacity="0.0"
     inkscape:pageshadow="2"
     inkscape:zoom="0.35"
     inkscape:cx="-282.14286"
     inkscape:cy="520"
     inkscape:document-units="px"
     inkscape:current-layer="svg2"
     showgrid="false"
     units="px"
     inkscape:window-width="1858"
     inkscape:window-height="1177"
     inkscape:window-x="1912"
     inkscape:window-y="-8"
     inkscape:window-maximized="1" />
  <metadata
     id="metadata7">
    <rdf:RDF>
      <cc:Work
         rdf:about="">
        <dc:format>image/svg+xml</dc:format>
        <dc:type
           rdf:resource="http://purl.org/dc/dcmitype/StillImage" />
        <dc:title></dc:title>
      </cc:Work>
    </rdf:RDF>
  </metadata>
  <path
     inkscape:connector-curvature="0"
     style="fill:#cccccc"
     d="m 25.4375,3.066405 0,6.32227 c -2.268,0.47762 -4.419,1.27505 -6.40625,2.33984 l -4.06836,-4.84766 -7.6543,6.42188 4.07032,4.85156 c -1.40032,1.78282 -2.55521,3.76715 -3.41602,5.90039 L 1.73438,22.957035 0,32.796875 l 6.22852,1.09961 c 0.0768,2.33744 0.48733,4.59043 1.18359,6.7168 l -5.47656,3.16211 4.99609,8.65429 5.48828,-3.16797 c 1.52155,1.6934 3.27722,3.17112 5.2168,4.38282 l -2.16602,5.94921 9.39063,3.41797 2.16211,-5.9414 c 1.11475,0.1577 2.25255,0.24023 3.41015,0.24023 1.15761,0 2.29736,-0.0818 3.41211,-0.24023 l 2.16211,5.9414 9.39063,-3.41797 -2.16602,-5.94921 c 1.93936,-1.2117 3.69479,-2.69067 5.2168,-4.38477 l 5.48828,3.16992 4.99609,-8.65429 -5.47656,-3.16211 c 0.69626,-2.12568 1.10487,-4.38154 1.18164,-6.71875 l 6.23047,-1.09766 -1.73633,-9.83984 -6.22851,1.09765 c -0.86082,-2.13347 -2.01548,-4.11757 -3.41602,-5.90039 l 4.07227,-4.85156 -7.6543,-6.42188 -4.06836,4.84766 c -1.98702,-1.06479 -4.14043,-1.86222 -6.4082,-2.33984 l 0,-6.32227 -9.99219,0 z m 54.19531,12.78125 -0.72656,3.50195 c -1.27403,0.002 -2.55738,0.18261 -3.81445,0.55274 l -1.69336,-3.14649 -4.97266,2.67774 1.69336,3.14648 c -0.99993,0.84477 -1.85718,1.81928 -2.56055,2.88086 l -3.32226,-1.32422 -2.08789,5.24805 3.32422,1.32422 c -0.21887,1.26234 -0.26089,2.55679 -0.11719,3.84961 l -3.39453,1.12305 1.77344,5.36132 3.39257,-1.12109 c 0.66464,1.14271 1.47389,2.15334 2.39063,3.02539 l -1.87695,3.04102 4.80273,2.96679 1.88281,-3.04687 c 1.21124,0.4345 2.48038,0.7 3.76953,0.7832 l 0.51563,3.54102 5.58984,-0.81641 -0.51562,-3.53711 c 0.59633,-0.2193 1.18555,-0.48267 1.76172,-0.79297 0.57662,-0.3099 1.12127,-0.65865 1.63281,-1.03515 l 2.66797,2.37695 3.75586,-4.2168 -2.66993,-2.3789 c 0.64057,-1.123 1.11557,-2.32988 1.41993,-3.58008 l 3.57812,0.10742 L 96,30.714845 92.42773,30.607425 c -0.22391,-1.24401 -0.62376,-2.47574 -1.21093,-3.66016 l 2.80468,-2.21484 -3.5,-4.43164 -2.80468,2.21679 c -1.00039,-0.83125 -2.10669,-1.50994 -3.28125,-2.02148 l 0.72461,-3.50391 -5.52735,-1.14453 z m -49.19922,4.48242 c 7.0364,0 12.76172,5.72361 12.76172,12.75977 0,7.03663 -5.72509,12.76172 -12.76172,12.76172 -7.03639,0 -12.75976,-5.72509 -12.75976,-12.76172 0,-7.03616 5.72337,-12.75977 12.75976,-12.75977 z m 48.54102,5.49219 c 2.55869,0.0108 5.03528,1.38587 6.33203,3.79297 1.88435,3.50147 0.57109,7.88186 -2.92969,9.76758 -3.50215,1.88549 -7.88495,0.57109 -9.76953,-2.92969 -1.88618,-3.50123 -0.57247,-7.88495 2.92969,-9.76953 1.09385,-0.58936 2.27446,-0.86623 3.4375,-0.86133 z m -11.5625,23.56445 -7.08398,0.98828 0.62304,4.48243 c -1.56051,0.5621 -3.00718,1.34011 -4.31054,2.29101 l -3.36329,-3.03515 -4.79296,5.30859 3.36523,3.03906 c -0.81635,1.4022 -1.43842,2.92319 -1.83789,4.52149 l -4.52344,-0.16407 -0.25976,7.14844 4.52539,0.16406 c 0.28556,1.6496 0.7979,3.20534 1.50195,4.64454 l -3.57031,2.7832 4.39843,5.64258 3.57618,-2.78907 c 1.2463,1.0501 2.63853,1.92565 4.13281,2.59375 l -0.94922,4.4336 6.99609,1.49414 0.94727,-4.42774 c 0.80581,0 1.62093,-0.0514 2.44141,-0.16601 0.82093,-0.1141 1.62057,-0.28671 2.39453,-0.50781 l 2.12109,4 6.31836,-3.35157 -2.12305,-4.0039 c 1.25593,-1.051 2.35325,-2.2742 3.26563,-3.625 l 4.20312,1.70508 2.6875,-6.62891 -4.19336,-1.70117 c 0.28282,-1.5756 0.34916,-3.21566 0.17383,-4.88086 l 4.3086,-1.39258 -2.20313,-6.80664 -4.30664,1.39453 c -0.82139,-1.4275 -1.83679,-2.7204 -3.00586,-3.8457 l 2.4082,-3.8418 -6.0625,-3.79687 -2.40625,3.83789 c -1.51352,-0.5588 -3.11586,-0.91129 -4.77148,-1.02539 l -0.625,-4.48243 z m -0.90625,12.65039 c 4.62119,-0.17124 8.72595,3.19149 9.37891,7.86914 0.69419,4.9887 -2.79847,9.6125 -7.78711,10.3086 -4.98956,0.6946 -9.61394,-2.79821 -10.3086,-7.78711 -0.69603,-4.9891 2.79778,-9.61409 7.78711,-10.30859 0.31181,-0.0435 0.62161,-0.0706 0.92969,-0.082 z"
     id="path4141" />
</svg>
