<?xml version="1.0" encoding="UTF-8" standalone="no"?>
<!-- Created with Inkscape (http://www.inkscape.org/) -->

<svg
   xmlns:dc="http://purl.org/dc/elements/1.1/"
   xmlns:cc="http://creativecommons.org/ns#"
   xmlns:rdf="http://www.w3.org/1999/02/22-rdf-syntax-ns#"
   xmlns:svg="http://www.w3.org/2000/svg"
   xmlns="http://www.w3.org/2000/svg"
   xmlns:sodipodi="http://sodipodi.sourceforge.net/DTD/sodipodi-0.dtd"
   xmlns:inkscape="http://www.inkscape.org/namespaces/inkscape"
   width="96"
   height="96"
   viewBox="0 0 96 96"
   id="svg4139"
   version="1.1"
   inkscape:version="0.91 r13725"
   sodipodi:docname="NoLED.svg">
  <defs
     id="defs4141" />
  <sodipodi:namedview
     id="base"
     pagecolor="#ffffff"
     bordercolor="#666666"
     borderopacity="1.0"
     inkscape:pageopacity="0.0"
     inkscape:pageshadow="2"
     inkscape:zoom="2.8"
     inkscape:cx="-25.810314"
     inkscape:cy="49.641"
     inkscape:document-units="px"
     inkscape:current-layer="svg4139"
     showgrid="false"
     units="px"
     inkscape:window-width="1858"
     inkscape:window-height="1177"
     inkscape:window-x="1912"
     inkscape:window-y="-8"
     inkscape:window-maximized="1" />
  <metadata
     id="metadata4144">
    <rdf:RDF>
      <cc:Work
         rdf:about="">
        <dc:format>image/svg+xml</dc:format>
        <dc:type
           rdf:resource="http://purl.org/dc/dcmitype/StillImage" />
        <dc:title />
      </cc:Work>
    </rdf:RDF>
  </metadata>
  <path
     style="fill:#4d4d4d"
     d="M 48 15.439453 C 38.232067 15.439453 30.240234 23.431286 30.240234 33.199219 L 30.240234 53.919922 C 27.724228 53.919922 25.800781 55.843369 25.800781 58.359375 C 25.800781 60.875381 27.724228 62.800781 30.240234 62.800781 L 65.759766 62.800781 C 68.275772 62.800781 70.199219 60.875381 70.199219 58.359375 C 70.199092 55.843496 68.275771 53.919922 65.759766 53.919922 L 58.359375 53.919922 L 58.359375 46.519531 C 58.359375 45.631514 57.766796 45.041016 56.878906 45.041016 L 53.919922 45.041016 L 56.583984 41.488281 C 57.027992 40.896227 56.879035 39.860025 56.287109 39.416016 C 55.695182 38.972008 54.658853 39.120964 54.214844 39.712891 L 49.775391 45.632812 C 49.479428 46.076822 49.33099 46.66732 49.626953 47.111328 C 49.922916 47.555337 50.36693 48 50.958984 48 L 55.400391 48 L 55.400391 53.919922 L 40.599609 53.919922 L 40.599609 42.080078 L 46.519531 42.080078 L 43.855469 45.632812 C 43.41146 46.224866 43.560417 47.259116 44.152344 47.703125 C 44.74427 48.147133 45.780601 48.000129 46.224609 47.408203 L 50.664062 41.488281 C 50.960026 41.044272 51.108464 40.451822 50.8125 40.007812 C 50.516537 39.563805 50.072523 39.121094 49.480469 39.121094 L 39.119141 39.121094 C 38.231124 39.121094 37.640625 39.711719 37.640625 40.599609 L 37.640625 53.919922 C 36.752608 53.919922 36.160156 54.512501 36.160156 55.400391 C 36.160156 56.28828 36.752735 56.878906 37.640625 56.878906 L 65.759766 56.878906 C 66.647783 56.878906 67.240234 57.471485 67.240234 58.359375 C 67.240234 59.247392 66.647655 59.839844 65.759766 59.839844 L 30.240234 59.839844 C 29.352217 59.839844 28.759766 59.247265 28.759766 58.359375 C 28.759766 57.471358 29.352344 56.878906 30.240234 56.878906 L 31.720703 56.878906 C 33.200646 56.878906 33.199219 55.547654 33.199219 54.511719 L 33.199219 33.199219 C 33.199219 25.059275 39.860056 18.400391 48 18.400391 C 56.139945 18.400391 62.800781 25.059275 62.800781 33.199219 L 62.800781 49.480469 C 62.800781 50.368486 63.391407 50.958984 64.279297 50.958984 C 65.167187 50.958984 65.759766 50.368359 65.759766 49.480469 L 65.759766 33.199219 C 65.759766 23.431286 57.767933 15.439453 48 15.439453 z M 39.119141 65.759766 C 38.231124 65.759766 37.640625 66.352344 37.640625 67.240234 L 37.640625 79.080078 C 37.640625 79.968095 38.231251 80.560547 39.119141 80.560547 C 40.007031 80.560547 40.599609 79.967968 40.599609 79.080078 L 40.599609 67.240234 C 40.599609 66.352344 40.007158 65.759766 39.119141 65.759766 z M 56.878906 65.759766 C 55.990889 65.759766 55.400391 66.352344 55.400391 67.240234 L 55.400391 79.080078 C 55.400391 79.968095 55.991017 80.560547 56.878906 80.560547 C 57.766796 80.560547 58.359375 79.967968 58.359375 79.080078 L 58.359375 67.240234 C 58.359502 66.352344 57.766923 65.759766 56.878906 65.759766 z "
     id="path5723" />
  <path
     style="opacity:1;fill:#000000;fill-opacity:0.42089551;stroke:none;stroke-width:9.75836658;stroke-linecap:round;stroke-linejoin:round;stroke-miterlimit:4;stroke-dasharray:none;stroke-dashoffset:0;stroke-opacity:1"
     d="M 48,0 A 48,48 0 0 0 0,48 48,48 0 0 0 48,96 48,48 0 0 0 96,48 48,48 0 0 0 48,0 Z m 0,8 a 40,40 0 0 1 24.949219,8.783203 L 16.759766,72.972656 A 40,40 0 0 1 8,48 40,40 0 0 1 48,8 Z M 79.994141,24.058594 A 40,40 0 0 1 88,48 40,40 0 0 1 48,88 40,40 0 0 1 24.064453,79.988281 L 79.994141,24.058594 Z"
     id="path5799"
     inkscape:connector-curvature="0" />
</svg>
