<?xml version="1.0" encoding="UTF-8" standalone="no"?>
<!-- Created with Inkscape (http://www.inkscape.org/) -->

<svg
   xmlns:dc="http://purl.org/dc/elements/1.1/"
   xmlns:cc="http://creativecommons.org/ns#"
   xmlns:rdf="http://www.w3.org/1999/02/22-rdf-syntax-ns#"
   xmlns:svg="http://www.w3.org/2000/svg"
   xmlns="http://www.w3.org/2000/svg"
   xmlns:sodipodi="http://sodipodi.sourceforge.net/DTD/sodipodi-0.dtd"
   xmlns:inkscape="http://www.inkscape.org/namespaces/inkscape"
   width="96"
   height="96"
   viewBox="0 0 96 96"
   id="svg4139"
   version="1.1"
   inkscape:version="0.91 r13725"
   sodipodi:docname="NoSpeed.svg">
  <defs
     id="defs4141" />
  <sodipodi:namedview
     id="base"
     pagecolor="#ffffff"
     bordercolor="#666666"
     borderopacity="1.0"
     inkscape:pageopacity="0.0"
     inkscape:pageshadow="2"
     inkscape:zoom="2.8"
     inkscape:cx="3.3813093"
     inkscape:cy="-25.603047"
     inkscape:document-units="px"
     inkscape:current-layer="svg4139"
     showgrid="false"
     units="px"
     inkscape:window-width="1858"
     inkscape:window-height="1177"
     inkscape:window-x="1912"
     inkscape:window-y="-8"
     inkscape:window-maximized="1" />
  <metadata
     id="metadata4144">
    <rdf:RDF>
      <cc:Work
         rdf:about="">
        <dc:format>image/svg+xml</dc:format>
        <dc:type
           rdf:resource="http://purl.org/dc/dcmitype/StillImage" />
        <dc:title></dc:title>
      </cc:Work>
    </rdf:RDF>
  </metadata>
  <path
     id="path7965"
     d="m 47.973252,55.573459 c -0.129779,0 -0.258848,0.004 -0.387411,0.0111 l -12.223066,-7.21176 c -0.299169,-0.17679 -0.678981,-0.13252 -0.929622,0.10789 -0.250844,0.24021 -0.311022,0.61789 -0.147508,0.92405 l 6.667726,12.49711 c -0.02452,0.24072 -0.03759,0.48376 -0.03759,0.72893 0,1.88518 0.734093,3.6574 2.06703,4.99033 1.333039,1.33304 3.105358,2.06713 4.990537,2.06713 1.885179,0 3.657398,-0.73429 4.990334,-2.06713 1.333038,-1.33293 2.06703,-3.10515 2.06703,-4.99033 0,-1.88518 -0.734093,-3.6574 -2.06703,-4.99033 -1.332937,-1.33294 -3.105358,-2.06704 -4.990435,-2.06704 z m 29.613657,-7.68092 c -0.124409,-0.39663 -0.546772,-0.61759 -0.942995,-0.49308 l -8.616223,2.69971 c -0.396629,0.12421 -0.617282,0.54637 -0.493076,0.94279 0.618397,1.97413 0.931951,4.0361 0.931951,6.12866 0,0.30808 -0.0077,0.62245 -0.0233,0.96082 -0.0093,0.19928 0.06099,0.3943 0.195529,0.54171 0.134438,0.14751 0.321963,0.23555 0.52124,0.24466 l 9.019742,0.41669 c 0.01195,5.1e-4 0.02371,8.1e-4 0.03546,8.1e-4 0.399568,0 0.73227,-0.31436 0.751114,-0.71758 0.0232,-0.50199 0.03465,-0.97531 0.03465,-1.44711 -2.02e-4,-3.1623 -0.475752,-6.28386 -1.414086,-9.27808 z m -2.87741,-6.03829 c 0.04863,-0.1936 0.01864,-0.39835 -0.08388,-0.56977 -1.867348,-3.12389 -4.248237,-5.87426 -7.076309,-8.17431 -0.154903,-0.12582 -0.352559,-0.18479 -0.551836,-0.16483 -0.198467,0.0206 -0.380724,0.11894 -0.506551,0.27374 l -5.697377,7.00499 c -0.125827,0.1549 -0.185195,0.35337 -0.164629,0.55184 0.02036,0.19846 0.118837,0.38072 0.27374,0.50675 1.871198,1.52158 3.446063,3.3407 4.681034,5.40682 0.141023,0.23565 0.39055,0.36654 0.646662,0.36654 0.1314,0 0.26442,-0.0345 0.385283,-0.10678 l 7.750325,-4.63271 c 0.171113,-0.10243 0.294711,-0.26868 0.343543,-0.46228 z M 61.44689,29.231819 c -3.283563,-1.58297 -6.791831,-2.56396 -10.427344,-2.91631 -0.199784,-0.0201 -0.396933,0.0413 -0.551026,0.16807 -0.154093,0.12684 -0.251351,0.3096 -0.2706,0.50837 l -0.870557,8.98743 c -0.04012,0.41355 0.262798,0.7814 0.676447,0.82142 2.396187,0.2321 4.707172,0.87826 6.868826,1.92023 0.10283,0.0496 0.214575,0.0748 0.326726,0.0748 0.08368,0 0.167567,-0.0141 0.248209,-0.0421 0.188336,-0.0658 0.342935,-0.20383 0.429555,-0.38356 l 3.920702,-8.13388 c 0.180636,-0.37424 0.0235,-0.82406 -0.350938,-1.00439 z m -33.7308,21.63984 -8.714392,-2.36437 c -0.192591,-0.0521 -0.398047,-0.0258 -0.571186,0.0735 -0.173139,0.0993 -0.299676,0.2632 -0.352054,0.45579 -0.716161,2.64055 -1.079459,5.37734 -1.079459,8.13439 0,0.4718 0.01124,0.94512 0.03465,1.44712 0.01874,0.40331 0.351343,0.71758 0.751113,0.71758 0.01175,0 0.02371,-2.1e-4 0.03546,-8.1e-4 l 9.019741,-0.41669 c 0.199277,-0.009 0.387004,-0.0973 0.52124,-0.24467 0.134439,-0.1474 0.204849,-0.34243 0.195529,-0.5417 -0.0157,-0.33848 -0.0233,-0.65284 -0.0233,-0.96083 0,-1.82561 0.239599,-3.6343 0.71211,-5.37612 0.108502,-0.40099 -0.128462,-0.81423 -0.529448,-0.92314 z m 9.693049,-12.10818 c 0.135147,0.2548 0.395818,0.39997 0.665405,0.39997 0.118938,0 0.239598,-0.0283 0.35185,-0.0878 2.123662,-1.12627 4.408206,-1.86117 6.790311,-2.18435 0.411724,-0.0558 0.700356,-0.43492 0.644534,-0.84675 l -1.213593,-8.9473 c -0.05582,-0.41173 -0.436039,-0.69996 -0.84675,-0.64454 -3.617582,0.49065 -7.086542,1.60648 -10.310534,3.31649 -0.367047,0.19472 -0.506753,0.65001 -0.312238,1.01725 l 4.231015,7.97706 z m -2.6601,2.51158 c 0.01287,-0.19907 -0.054,-0.39531 -0.185701,-0.54515 l -5.961088,-6.7818 c -0.131704,-0.14984 -0.317607,-0.24122 -0.516884,-0.25409 -0.200089,-0.0128 -0.395313,0.054 -0.54515,0.18571 -2.739123,2.40773 -5.012724,5.24725 -6.757993,8.43964 -0.09564,0.17516 -0.118026,0.38112 -0.0619,0.5725 0.05613,0.19148 0.186005,0.35286 0.36117,0.4485 l 7.922958,4.3308 c 0.114582,0.0627 0.238282,0.0924 0.36036,0.0924 0.266142,0 0.524179,-0.14163 0.660846,-0.39167 1.153517,-2.11008 2.657263,-3.98746 4.469195,-5.58016 0.15014,-0.1315 0.241523,-0.3174 0.254187,-0.51668 z"
     style="fill:#4d4d4d"
     inkscape:connector-curvature="0" />
  <path
     style="opacity:1;fill:#000000;fill-opacity:0.42089551;stroke:none;stroke-width:9.75836658;stroke-linecap:round;stroke-linejoin:round;stroke-miterlimit:4;stroke-dasharray:none;stroke-dashoffset:0;stroke-opacity:1"
     d="M 48,0 A 48,48 0 0 0 0,48 48,48 0 0 0 48,96 48,48 0 0 0 96,48 48,48 0 0 0 48,0 Z m 0,8 a 40,40 0 0 1 24.949219,8.783203 L 16.759766,72.972656 A 40,40 0 0 1 8,48 40,40 0 0 1 48,8 Z M 79.994141,24.058594 A 40,40 0 0 1 88,48 40,40 0 0 1 48,88 40,40 0 0 1 24.064453,79.988281 L 79.994141,24.058594 Z"
     id="path5799"
     inkscape:connector-curvature="0" />
</svg>
