<?xml version="1.0" encoding="UTF-8" standalone="no"?>
<!-- Created with Inkscape (http://www.inkscape.org/) -->

<svg
   xmlns:dc="http://purl.org/dc/elements/1.1/"
   xmlns:cc="http://creativecommons.org/ns#"
   xmlns:rdf="http://www.w3.org/1999/02/22-rdf-syntax-ns#"
   xmlns:svg="http://www.w3.org/2000/svg"
   xmlns="http://www.w3.org/2000/svg"
   xmlns:sodipodi="http://sodipodi.sourceforge.net/DTD/sodipodi-0.dtd"
   xmlns:inkscape="http://www.inkscape.org/namespaces/inkscape"
   width="96"
   height="96"
   viewBox="0 0 96 96"
   id="svg4139"
   version="1.1"
   inkscape:version="0.91 r13725"
   sodipodi:docname="powerbutton.svg">
  <defs
     id="defs4141" />
  <sodipodi:namedview
     id="base"
     pagecolor="#ffffff"
     bordercolor="#666666"
     borderopacity="1.0"
     inkscape:pageopacity="0.0"
     inkscape:pageshadow="2"
     inkscape:zoom="0.35"
     inkscape:cx="-35.58453"
     inkscape:cy="-1.9337223"
     inkscape:document-units="px"
     inkscape:current-layer="svg4139"
     showgrid="false"
     units="px"
     inkscape:window-width="1858"
     inkscape:window-height="1177"
     inkscape:window-x="1912"
     inkscape:window-y="-8"
     inkscape:window-maximized="1" />
  <metadata
     id="metadata4144">
    <rdf:RDF>
      <cc:Work
         rdf:about="">
        <dc:format>image/svg+xml</dc:format>
        <dc:type
           rdf:resource="http://purl.org/dc/dcmitype/StillImage" />
        <dc:title></dc:title>
      </cc:Work>
    </rdf:RDF>
  </metadata>
  <path
     d="m 48,1e-5 c -2.0005,0 -3.73069,0.7316 -5.19226,2.1931 -1.46158,1.4608 -2.19184,3.1913 -2.19184,5.191 l 0,36.9245 c 0,1.9995 0.73026,3.7313 2.19184,5.1923 1.46157,1.4625 3.19237,2.1918 5.19226,2.1918 2.00029,0 3.7317,-0.7304 5.19226,-2.1932 1.46097,-1.4607 2.19319,-3.1914 2.19319,-5.1909 l 0,-36.9245 c 0,-2.0006 -0.73141,-3.7302 -2.19319,-5.191 C 51.7319,0.73081 50.00029,1e-5 48,1e-5 Z m -21.83454,14.8182 c -1.72713,-0.071 -3.31408,0.4322 -4.76092,1.509 -5.61595,4.1919 -9.97183,9.3849 -13.06855,15.5767 -3.09653,6.1927 -4.64329,12.788 -4.64329,19.7875 0,6.0009 1.17246,11.731 3.5183,17.1926 2.34664,5.46148 5.50016,10.17315 9.46235,14.13533 3.96099,3.96121 8.67343,7.11568 14.1354,9.45968 5.46156,2.34704 11.19137,3.52097 17.19125,3.52097 6.00008,0 11.73084,-1.17393 17.19261,-3.52097 5.46216,-2.34483 10.1738,-5.49868 14.13539,-9.45968 3.96099,-3.96094 7.11476,-8.67385 9.461,-14.13533 2.34624,-5.4616 3.5183,-11.1931 3.5183,-17.1926 2e-4,-6.9998 -1.54541,-13.595 -4.64193,-19.7875 -3.09673,-6.1918 -7.45205,-11.3848 -13.0672,-15.5767 -1.61534,-1.2306 -3.44313,-1.7117 -5.48162,-1.4427 -2.03869,0.2693 -3.6539,1.2307 -4.84611,2.8841 -1.23081,1.6151 -1.70075,3.4326 -1.413,5.4519 0.28755,2.0202 1.24039,3.645 2.85574,4.8758 3.76761,2.846 6.68364,6.3273 8.74031,10.4427 2.05789,4.1149 3.08561,8.4996 3.08561,13.1524 0,4.0012 -0.77916,7.8174 -2.33652,11.4526 -1.55715,3.6347 -3.66306,6.7784 -6.31725,9.43265 -2.6542,2.65339 -5.79735,4.7593 -9.43261,6.31725 -3.63464,1.55803 -7.45274,2.3379 -11.45272,2.3379 -3.99938,0 -7.81672,-0.77987 -11.45137,-2.3379 -3.63504,-1.55795 -6.77841,-3.66386 -9.43261,-6.31725 -2.65298,-2.65425 -4.75929,-5.79775 -6.31725,-9.43265 -1.55756,-3.6352 -2.33652,-7.4514 -2.33652,-11.4526 0,-4.6528 1.02948,-9.0368 3.08696,-13.1524 2.05768,-4.115 4.97129,-7.5961 8.74031,-10.4427 1.61535,-1.2316 2.56678,-2.8561 2.85574,-4.8758 0.28836,-2.0185 -0.18334,-3.8368 -1.41435,-5.4519 -1.19242,-1.6534 -2.79666,-2.615 -4.81636,-2.8841 -0.25243,-0.034 -0.50235,-0.056 -0.74909,-0.067 z"
     id="path5"
     inkscape:connector-curvature="0"
     style="fill:#666666" />
</svg>
