<?xml version="1.0" encoding="UTF-8" standalone="no"?>
<!-- Created with Inkscape (http://www.inkscape.org/) -->

<svg
   xmlns:dc="http://purl.org/dc/elements/1.1/"
   xmlns:cc="http://creativecommons.org/ns#"
   xmlns:rdf="http://www.w3.org/1999/02/22-rdf-syntax-ns#"
   xmlns:svg="http://www.w3.org/2000/svg"
   xmlns="http://www.w3.org/2000/svg"
   xmlns:sodipodi="http://sodipodi.sourceforge.net/DTD/sodipodi-0.dtd"
   xmlns:inkscape="http://www.inkscape.org/namespaces/inkscape"
   width="96"
   height="96"
   viewBox="0 0 96 96"
   id="svg5865"
   version="1.1"
   inkscape:version="0.91 r13725"
   sodipodi:docname="scene.svg">
  <defs
     id="defs5867" />
  <sodipodi:namedview
     id="base"
     pagecolor="#ffffff"
     bordercolor="#666666"
     borderopacity="1.0"
     inkscape:pageopacity="0.0"
     inkscape:pageshadow="2"
     inkscape:zoom="1.979899"
     inkscape:cx="239.73866"
     inkscape:cy="-130.98902"
     inkscape:document-units="px"
     inkscape:current-layer="svg5865"
     showgrid="false"
     units="px"
     inkscape:window-width="1858"
     inkscape:window-height="1177"
     inkscape:window-x="1912"
     inkscape:window-y="-8"
     inkscape:window-maximized="1" />
  <metadata
     id="metadata5870">
    <rdf:RDF>
      <cc:Work
         rdf:about="">
        <dc:format>image/svg+xml</dc:format>
        <dc:type
           rdf:resource="http://purl.org/dc/dcmitype/StillImage" />
        <dc:title></dc:title>
      </cc:Work>
    </rdf:RDF>
  </metadata>
  <path
     inkscape:connector-curvature="0"
     d="m 94.30588,2.8876807 -92.6117628,0 C 0.75828665,2.8876807 -3.4999999e-7,3.6459677 -3.4999999e-7,4.5817983 -3.4999999e-7,5.517403 0.75828665,6.2759159 1.6941172,6.2759159 l 10.4131758,0 0,7.1778631 -0.878908,0 c -4.0498447,0 -7.3447902,3.29472 -7.3447902,7.344565 l 0,11.806192 c 0,0.935831 0.7582871,1.694118 1.6941175,1.694118 l 0.870551,0 c 0.139821,1.70112 0.857449,3.363162 2.155821,4.661534 l 3.3609027,3.360904 c 0.06844,0.46848 0.22001,0.842315 0.396876,1.135058 l 13.491952,48.416527 c 0.208716,0.749026 0.889525,1.239642 1.631097,1.239642 0.150438,0 0.303586,-0.02033 0.45583,-0.06257 0.901045,-0.250956 1.428255,-1.185431 1.177073,-2.086701 L 16.211801,44.649035 c 2.110871,-0.54415 4.451464,-2.294513 6.112151,-3.954974 1.533515,-1.533741 2.7648,-3.221534 3.467068,-4.752565 0.118362,-0.258183 0.213007,-0.501233 0.296584,-0.736828 l 6.695604,3.720282 c 0.260669,0.145017 0.542796,0.213459 0.821309,0.213459 0.595425,0 1.172781,-0.314428 1.482465,-0.871454 0.454476,-0.81792 0.159925,-1.849299 -0.657995,-2.303548 l -9.05088,-5.028819 C 25.05374,30.675727 24.587971,30.42816 23.950079,30.334193 l -0.796461,-0.796235 c 0.346503,-0.310137 0.565835,-0.759643 0.565835,-1.261327 l 0,-7.478287 c 0,-4.049845 -3.29472,-7.344565 -7.344565,-7.344565 l -0.879359,0 0,-7.1778631 27.700856,0 0,7.1778631 -0.878683,0 c -4.049844,0 -7.34479,3.29472 -7.34479,7.344565 l 0,7.48416 c 0,0.93583 0.758287,1.694117 1.694117,1.694117 l 0.350118,0 c -0.707463,1.674918 -0.781327,3.526927 -0.198325,5.266221 l 1.509798,4.504998 c -0.189515,0.575548 -0.187482,1.074748 -0.116781,1.465976 l -2.126231,50.132103 c -0.03975,0.934701 0.686005,1.724612 1.620932,1.764367 0.02439,9.04e-4 0.04879,0.0014 0.07296,0.0014 0.9024,0 1.652555,-0.711982 1.691181,-1.622513 l 2.022551,-47.685572 c 0.407491,0.06257 0.864903,0.09781 1.378786,0.09781 1.611218,0 3.548385,-0.351925 5.454832,-0.99072 2.056659,-0.689393 3.910927,-1.651426 5.221723,-2.708556 0.202164,-0.163087 0.384677,-0.324141 0.55183,-0.482936 l 17.088452,26.020697 -9.190701,25.095077 c -0.321657,0.878683 0.129656,1.851784 1.008339,2.17344 0.192225,0.07025 0.388969,0.10368 0.582324,0.10368 0.690974,0 1.339709,-0.425788 1.591116,-1.112019 L 73.505278,69.267275 88.66221,92.347482 c 0.32527,0.49536 0.866033,0.764385 1.417412,0.764385 0.318946,0 0.641957,-0.0899 0.928376,-0.278287 0.782005,-0.51343 0.999755,-1.563783 0.485873,-2.346014 L 74.956798,65.305298 82.918925,43.564348 c 0.204876,-0.3072 0.387163,-0.716273 0.463963,-1.243708 l 3.360451,-3.360678 c 1.263586,-1.263586 2.016678,-2.900329 2.160113,-4.661534 l 0.866937,0 c 0.93583,0 1.694117,-0.758287 1.694117,-1.694117 l 0,-11.805967 c 0,-4.049845 -3.294945,-7.344565 -7.34479,-7.344565 l -0.878908,0 0,-7.1778631 11.065072,0 C 95.241711,6.2759159 96,5.517403 96,4.5817983 96,3.6461936 95.241711,2.8876807 94.30588,2.8876807 Z M 11.000244,30.798607 12.428046,29.370579 c 1.58976,-1.589082 4.175887,-1.589534 5.765195,0 l 1.929939,1.929939 c -1.481562,0.8064 -2.93647,1.98528 -4.072207,3.121016 -1.30944,1.30944 -2.395256,2.730466 -3.122372,4.070852 l -1.928357,-1.928358 c -1.5895337,-1.589534 -1.5895337,-4.175661 0,-5.765421 z m 8.927774,7.49952 c -1.856527,1.856301 -3.62225,2.836631 -4.565534,3.078099 0.22656,-0.87552 1.149515,-2.623624 3.084649,-4.558758 1.856075,-1.856301 3.621798,-2.83663 4.565534,-3.077873 -0.227012,0.87552 -1.149967,2.623398 -3.084649,4.558532 z m 0.402296,-17.499783 0,5.783943 -0.16783,0 C 17.23279,24.07296 12.80527,24.201939 10.032338,26.974419 l -1.4280277,1.428028 c -0.547087,0.547087 -0.990946,1.158551 -1.332254,1.810221 l 0,-9.414324 c 0,-2.181346 1.774757,-3.95633 3.9565547,-3.95633 l 5.1456,0 c 2.18112,2.26e-4 3.956103,1.774984 3.956103,3.95633 z m 18.030833,0 c 0,-2.181346 1.774758,-3.95633 3.956555,-3.95633 l 5.145374,0 c 2.181572,0 3.956556,1.774758 3.956556,3.95633 l 0,5.783943 -0.566062,0 c -0.04969,0 -0.09848,0.0032 -0.147275,0.0075 -0.470739,-0.407266 -0.995238,-0.758513 -1.567172,-1.04335 -1.78447,-0.888622 -3.808828,-1.029572 -5.699689,-0.39552 l -1.914579,0.641957 c -0.601299,0.201487 -1.165779,0.474127 -1.685308,0.808885 -0.06709,-0.0079 -0.135078,-0.01355 -0.204424,-0.01355 l -1.273976,0 0,-5.789816 z m 2.536885,15.95407 -0.866485,-2.586127 c -0.346052,-1.032508 -0.269252,-2.137976 0.215944,-3.112433 0.485195,-0.974682 1.321411,-1.702023 2.354145,-2.048075 l 1.914805,-0.641958 c 1.032057,-0.346277 2.137751,-0.269252 3.112659,0.215944 0.974456,0.485195 1.702023,1.321411 2.048075,2.354146 l 0.867162,2.586578 c -1.523124,0.05399 -3.291105,0.394843 -5.036272,0.979878 -1.75601,0.588198 -3.36113,1.376301 -4.610033,2.252047 z m 6.352263,2.945732 c -1.568527,0.525628 -3.123501,0.814983 -4.378277,0.814983 -0.475031,0 -0.8256,-0.04247 -1.070231,-0.09442 0.564706,-0.639021 2.058918,-1.79328 4.783059,-2.70607 1.568301,-0.525628 3.123275,-0.815209 4.378051,-0.815209 0.475031,0 0.8256,0.04269 1.070231,0.09442 -0.564706,0.639247 -2.059143,1.79328 -4.782833,2.706297 z m 29.650447,-2.880678 c 1.934908,1.934908 2.858089,3.683238 3.084649,4.558758 -0.94351,-0.241468 -2.709233,-1.221798 -4.565308,-3.078099 -1.934908,-1.934682 -2.857863,-3.683012 -3.084649,-4.558532 0.943284,0.241243 2.709007,1.221572 4.565308,3.077873 z m 7.446663,-0.252988 -1.928131,1.927906 c -0.727568,-1.340612 -1.813158,-2.761638 -3.122598,-4.070852 -1.135962,-1.135736 -2.590871,-2.314616 -4.072433,-3.121016 l 1.929939,-1.929939 c 1.589986,-1.589534 4.176339,-1.589308 5.765421,-2.26e-4 l 1.428028,1.42848 c 0.770033,0.770033 1.19424,1.793732 1.19424,2.88271 0,1.088753 -0.424207,2.112452 -1.194466,2.882937 z m 3.72864,-15.766136 0,9.410258 c -0.346277,-0.657091 -0.792395,-1.265844 -1.33248,-1.805703 l -1.428028,-1.42848 c -2.77248,-2.77248 -7.200226,-2.901685 -10.130146,-0.391906 l -0.16783,0 0,-5.784169 c 0,-2.181346 1.774757,-3.95633 3.956555,-3.95633 l 5.1456,0 c 2.181572,2.26e-4 3.956329,1.774984 3.956329,3.95633 z m -8.223473,-7.344339 -0.878682,0 c -4.049845,0 -7.34479,3.29472 -7.34479,7.344565 l 0,7.478061 c 0,0.50191 0.219557,0.95119 0.565835,1.261327 l -0.79601,0.796235 c -0.637665,0.09397 -1.103887,0.341534 -1.428254,0.600395 l -9.05088,5.028819 c -0.81792,0.454475 -1.11247,1.485628 -0.657995,2.303548 0.309459,0.557252 0.88704,0.871454 1.482466,0.871454 0.278287,0 0.56064,-0.06867 0.821308,-0.213459 l 6.695605,-3.720282 c 0.08335,0.235595 0.177995,0.478645 0.296583,0.736828 0.702043,1.531031 1.933553,3.218824 3.467069,4.752565 1.606927,1.606927 3.852197,3.300593 5.90863,3.900988 l -6.29263,17.182419 -17.212913,-26.21071 c -0.172574,-0.382193 -0.480678,-0.828085 -1.027991,-1.20689 l -1.471397,-4.389572 0.185675,0 c 0.935831,0 1.694118,-0.758287 1.694118,-1.694117 l 0,-7.477835 c 0,-4.049845 -3.294946,-7.344565 -7.344791,-7.344565 l -0.878682,0 0,-7.1778631 33.267952,0 0,7.1780891 z"
     id="path8070" />
</svg>
