<?xml version="1.0" encoding="UTF-8" standalone="no"?>
<!-- Created with Inkscape (http://www.inkscape.org/) -->

<svg
   xmlns:dc="http://purl.org/dc/elements/1.1/"
   xmlns:cc="http://creativecommons.org/ns#"
   xmlns:rdf="http://www.w3.org/1999/02/22-rdf-syntax-ns#"
   xmlns:svg="http://www.w3.org/2000/svg"
   xmlns="http://www.w3.org/2000/svg"
   xmlns:sodipodi="http://sodipodi.sourceforge.net/DTD/sodipodi-0.dtd"
   xmlns:inkscape="http://www.inkscape.org/namespaces/inkscape"
   width="96"
   height="96"
   viewBox="0 0 96 96"
   id="svg4139"
   version="1.1"
   inkscape:version="0.91 r13725"
   sodipodi:docname="speedmeter.svg">
  <defs
     id="defs4141" />
  <sodipodi:namedview
     id="base"
     pagecolor="#ffffff"
     bordercolor="#666666"
     borderopacity="1.0"
     inkscape:pageopacity="0.0"
     inkscape:pageshadow="2"
     inkscape:zoom="0.98994949"
     inkscape:cx="-351.94549"
     inkscape:cy="318.05571"
     inkscape:document-units="px"
     inkscape:current-layer="svg4139"
     showgrid="false"
     units="px"
     inkscape:window-width="1858"
     inkscape:window-height="1177"
     inkscape:window-x="1912"
     inkscape:window-y="-8"
     inkscape:window-maximized="1" />
  <metadata
     id="metadata4144">
    <rdf:RDF>
      <cc:Work
         rdf:about="">
        <dc:format>image/svg+xml</dc:format>
        <dc:type
           rdf:resource="http://purl.org/dc/dcmitype/StillImage" />
        <dc:title></dc:title>
      </cc:Work>
    </rdf:RDF>
  </metadata>
  <path
     inkscape:connector-curvature="0"
     d="m 52.67584,14.425759 c -0.30933,-0.0311 -0.61493,0.0635 -0.85352,0.25976 -0.23858,0.1964 -0.38816,0.47935 -0.41797,0.78711 l -1.34765,13.91602 c -0.0621,0.64031 0.40641,1.20952 1.04687,1.27148 3.71011,0.35938 7.2878,1.35933 10.63477,2.97266 0.15921,0.0769 0.33221,0.11523 0.50586,0.11523 0.12957,0 0.2599,-0.021 0.38476,-0.0645 0.29161,-0.1018 0.5319,-0.31548 0.66602,-0.59375 l 6.07031,-12.59375 c 0.27969,-0.57945 0.0348,-1.27547 -0.54492,-1.55469 -5.08406,-2.45097 -10.51553,-3.97005 -16.14453,-4.51562 z m -11.17578,0.21094 c -5.601239,0.75968 -10.973019,2.48904 -15.964849,5.13671 -0.56831,0.30149 -0.78555,1.0056 -0.48437,1.57422 l 6.55273,12.35157 c 0.20926,0.3945 0.61189,0.61914 1.0293,0.61914 0.18416,0 0.37112,-0.0445 0.54492,-0.13672 3.28815,-1.74384 6.825369,-2.88047 10.513669,-3.38086 0.63749,-0.0864 1.08448,-0.67486 0.99805,-1.3125 l -1.8789,-13.85352 c -0.0864,-0.63748 -0.67463,-1.08385 -1.31055,-0.99804 z m 35.91601,10.05273 c -0.30729,0.0318 -0.59033,0.18414 -0.78515,0.42383 l -8.82031,10.84765 c -0.19483,0.23985 -0.28771,0.54623 -0.25586,0.85352 0.0315,0.30729 0.18398,0.59002 0.42382,0.78516 2.89725,2.35591 5.3359,5.17204 7.24805,8.37109 0.21835,0.36486 0.60541,0.56836 1.00195,0.56836 0.20345,0 0.40857,-0.054 0.59571,-0.16602 l 12,-7.17382 c 0.26494,-0.15859 0.45564,-0.41508 0.53125,-0.71485 0.0753,-0.29976 0.0298,-0.6174 -0.12891,-0.88281 -2.89128,-4.83685 -6.57822,-9.09501 -10.95703,-12.65625 -0.23984,-0.19482 -0.54497,-0.28676 -0.85352,-0.25586 z m -60.249999,1.16016 c -0.3098,-0.0198 -0.611751,0.0832 -0.843751,0.28711 -4.24108,3.72798 -7.76062,8.12547 -10.46289,13.06836 -0.14807,0.27121 -0.1826,0.5904 -0.0957,0.88671 0.0869,0.29647 0.28738,0.54529 0.55859,0.69336 l 12.267581,6.70508 c 0.17741,0.0971 0.36762,0.14453 0.55664,0.14453 0.41208,0 0.81183,-0.22028 1.02344,-0.60742 1.78603,-3.26713 4.11444,-6.17459 6.919919,-8.64062 0.23247,-0.20361 0.37493,-0.49028 0.39453,-0.79883 0.0199,-0.30824 -0.0832,-0.61175 -0.28711,-0.84375 l -9.230469,-10.50195 c -0.20392,-0.232 -0.49223,-0.37266 -0.80078,-0.39258 z m 75.644539,21.17187 c -0.1506,-0.0146 -0.30562,6.3e-4 -0.45899,0.0488 l -13.3418,4.17969 c -0.61411,0.19231 -0.95403,0.84713 -0.76171,1.46093 0.95748,3.05662 1.4414,6.2483 1.4414,9.48829 0,0.47701 -0.011,0.96436 -0.0352,1.48828 -0.0144,0.30855 0.0944,0.60965 0.30274,0.83789 0.20816,0.22839 0.49809,0.36479 0.80664,0.3789 l 13.96484,0.64454 c 0.0185,7.8e-4 0.0385,0.002 0.0566,0.002 0.61867,0 1.13294,-0.48702 1.16211,-1.11133 0.0359,-0.77725 0.0527,-1.50973 0.0527,-2.24023 -3.2e-4,-4.8963 -0.7366,-9.72917 -2.18945,-14.36524 -0.14448,-0.46058 -0.54823,-0.76882 -1,-0.8125 z m -65.125,1.39649 c -0.25344,0.0294 -0.49737,0.14005 -0.69141,0.32617 -0.38839,0.37192 -0.48169,0.9576 -0.22852,1.43164 l 10.32422,19.34961 c -0.038,0.3727 -0.0586,0.7493 -0.0586,1.1289 0,2.9189 1.13733,5.66273 3.20117,7.72657 2.06399,2.06399 4.80767,3.19922 7.72656,3.19922 2.91889,0 5.66273,-1.13554 7.72657,-3.19922 2.06399,-2.06384 3.20117,-4.80767 3.20117,-7.72657 0,-2.91889 -1.13734,-5.66272 -3.20117,-7.72656 -2.06384,-2.06383 -4.80783,-3.20117 -7.72657,-3.20117 -0.20094,0 -0.40055,0.007 -0.59961,0.0176 L 28.433641,48.578119 c -0.23161,-0.13686 -0.49461,-0.1896 -0.748041,-0.16015 z M 2.6485,48.753879 c -0.15032,0.0193 -0.29761,0.0677 -0.43165,0.14453 -0.26807,0.15373 -0.46382,0.40884 -0.54492,0.70704 -1.10886,4.08845 -1.67187,8.3249 -1.67187,12.59375 0,0.7305 0.0185,1.46298 0.0547,2.24023 0.029,0.62447 0.54313,1.11133 1.1621,1.11133 0.0182,0 0.0384,9.4e-4 0.0566,0 l 13.96484,-0.64649 c 0.30855,-0.0141 0.5988,-0.15067 0.80664,-0.3789 0.20816,-0.22824 0.31717,-0.52934 0.30273,-0.83789 -0.0243,-0.52408 -0.0351,-1.01142 -0.0351,-1.48828 0,-2.82666 0.36996,-5.62729 1.10156,-8.32422 0.168,-0.62086 -0.19945,-1.25911 -0.82031,-1.42774 L 3.10163,48.785129 c -0.1491,-0.0403 -0.30281,-0.0505 -0.45312,-0.0312 z"
     id="path5539" />
</svg>
