<?xml version="1.0" encoding="UTF-8" standalone="no"?>
<!-- Created with Inkscape (http://www.inkscape.org/) -->

<svg
   xmlns:dc="http://purl.org/dc/elements/1.1/"
   xmlns:cc="http://creativecommons.org/ns#"
   xmlns:rdf="http://www.w3.org/1999/02/22-rdf-syntax-ns#"
   xmlns:svg="http://www.w3.org/2000/svg"
   xmlns="http://www.w3.org/2000/svg"
   xmlns:sodipodi="http://sodipodi.sourceforge.net/DTD/sodipodi-0.dtd"
   xmlns:inkscape="http://www.inkscape.org/namespaces/inkscape"
   width="96"
   height="96"
   viewBox="0 0 96.000001 96.000002"
   id="svg2"
   version="1.1"
   inkscape:version="0.91 r13725"
   sodipodi:docname="start.svg">
  <defs
     id="defs4" />
  <sodipodi:namedview
     id="base"
     pagecolor="#ffffff"
     bordercolor="#666666"
     borderopacity="1.0"
     inkscape:pageopacity="0.0"
     inkscape:pageshadow="2"
     inkscape:zoom="0.35"
     inkscape:cx="-282.14286"
     inkscape:cy="520"
     inkscape:document-units="px"
     inkscape:current-layer="svg2"
     showgrid="false"
     units="px"
     inkscape:window-width="1858"
     inkscape:window-height="1177"
     inkscape:window-x="1912"
     inkscape:window-y="-8"
     inkscape:window-maximized="1" />
  <metadata
     id="metadata7">
    <rdf:RDF>
      <cc:Work
         rdf:about="">
        <dc:format>image/svg+xml</dc:format>
        <dc:type
           rdf:resource="http://purl.org/dc/dcmitype/StillImage" />
        <dc:title></dc:title>
      </cc:Work>
    </rdf:RDF>
  </metadata>
  <path
     style="fill:#999999"
     d="m 94.5271,9.4495064 c -0.051,0.002 -0.1024,0.006 -0.1535,0.0135 -26.327,3.7468396 -53.091,4.2876496 -79.5482,1.6069396 -0.783,-0.0801 -1.4827,0.49141 -1.5622,1.27479 -0.08,0.78339 0.4914,1.48277 1.2747,1.56227 26.1426,2.64883 52.5797,2.17977 78.6111,-1.39344 l 0,27.41842 c -29.967,4.15054 -60.3304,4.15053 -90.2977003,0 l 0,-27.41842 c 2.1947,0.30113 4.407,0.58195 6.5974,0.83826 0.7839003,0.0926 1.4905003,-0.46818 1.5817003,-1.25025 0.091,-0.78207 -0.4686,-1.49037 -1.2507003,-1.58168 -2.7092,-0.31669 -5.4524,-0.6723296 -8.1533,-1.0568896 -0.4099,-0.0583 -0.82330003,0.064 -1.13530003,0.33472 C 0.17909967,10.068286 -3.3466677e-7,10.461326 -3.3466677e-7,10.874396 l 0,30.29723 c 0,0.70988 0.52200000466677,1.31181 1.22460003466677,1.41175 1.0476,0.14906 2.0958,0.2921 3.1443,0.43103 l 0,42.11129 c 0,0.78732 0.6384,1.42567 1.4257,1.42567 l 5.7067003,0 c 0.7873,0 1.4257,-0.63835 1.4257,-1.42567 l 0,-41.08845 c 11.6603,1.2392 23.3667,1.85927 35.073,1.85927 11.7063,0 23.4123,-0.61989 35.0723,-1.85927 l 0,12.67356 c 0,0.78732 0.6382,1.42567 1.4257,1.42567 0.7875,0 1.4256,-0.63835 1.4256,-1.42567 l 0,-12.98924 c 0.9522,-0.1095 1.9038,-0.22337 2.8554,-0.34131 l 0,40.31977 -2.8554,0 0,-22.23687 c 0,-0.78731 -0.6381,-1.42567 -1.4256,-1.42567 -0.7875,0 -1.4257,0.63836 -1.4257,1.42567 l 0,23.66254 c 0,0.78732 0.6382,1.42567 1.4257,1.42567 l 5.707,0 c 0.7875,0 1.4257,-0.63835 1.4257,-1.42567 l 0,-42.11092 c 1.0487,-0.13894 2.0969,-0.28234 3.1447,-0.4314 C 95.4779,42.483476 96,41.881866 96,41.171986 l 0,-30.29759 c 4e-4,-0.41307 -0.1785,-0.80592 -0.4907,-1.0766696 -0.2732,-0.23707 -0.6248,-0.36045 -0.9822,-0.34827 z M 78.2903,19.784786 c -0.048,0.002 -0.097,0.006 -0.1454,0.0125 -2.9822,0.40388 -6.0137,0.75235 -9.0103,1.03529 -0.7838,0.0741 -1.3593,0.76972 -1.2855,1.55348 0.07,0.73838 0.6907,1.29163 1.4177,1.29163 0.045,0 0.09,-0.002 0.1358,-0.006 0.9898,-0.0936 1.9836,-0.19652 2.9777,-0.30396 l 0,10.73629 c -2e-4,0.78751 0.6382,1.42604 1.4257,1.42604 0.7875,0 1.4257,-0.63836 1.4257,-1.42567 l 0,-11.06259 c 1.1019,-0.13294 2.2026,-0.27082 3.2955,-0.41895 0.7804,-0.10556 1.3273,-0.82345 1.2217,-1.60365 -0.099,-0.7316 -0.7367,-1.25873 -1.4586,-1.23414 z m -57.8453,0.37171 c -1.0681,-0.0229 -2.0634,0.33274 -2.8418,1.02247 -0.88,0.77982 -1.3646,1.88541 -1.3646,3.11355 0,2.44895 1.9001,4.59732 4.325,4.89151 l 0.3831,0.0462 c 0.9861,0.1185 1.819,1.04032 1.819,2.01307 0,0.41363 -0.1514,0.77634 -0.4267,1.02028 -0.2724,0.24169 -0.6463,0.34776 -1.0528,0.29883 -1.1387,-0.1365 -2.293,-0.28369 -3.4304,-0.43763 -0.7809,-0.10556 -1.4984,0.44113 -1.604,1.22132 -0.1057,0.78038 0.4413,1.49882 1.2217,1.60439 1.1518,0.15581 2.3204,0.30493 3.4732,0.44312 0.1821,0.0219 0.3626,0.0326 0.5412,0.0326 1.0259,0 1.9845,-0.35666 2.7434,-1.02979 0.8807,-0.78132 1.3861,-1.9306 1.3861,-3.15311 0,-2.42476 -1.9025,-4.55289 -4.3312,-4.84464 l -0.3794,-0.0454 c -0.9677,-0.11756 -1.8165,-1.0806 -1.8165,-2.06105 -10e-5,-0.40669 0.1396,-0.74507 0.404,-0.97925 0.2704,-0.23944 0.6499,-0.34361 1.0686,-0.29261 1.1514,0.13988 2.3214,0.27289 3.4783,0.39551 0.7836,0.0827 1.4849,-0.48464 1.5677,-1.26783 0.083,-0.78301 -0.4848,-1.48489 -1.2678,-1.56776 -1.1421,-0.12094 -2.2973,-0.25237 -3.4343,-0.39075 -0.1552,-0.0188 -0.3093,-0.0297 -0.4618,-0.033 z m 9.0773,0.91883 c -0.7225,0.0145 -1.3313,0.57339 -1.3916,1.30921 -0.064,0.7847 0.5199,1.47306 1.3048,1.53737 1.0744,0.0879 2.1555,0.16583 3.2381,0.23877 l 0,10.99374 c 2e-4,0.78732 0.6387,1.42567 1.426,1.42567 0.7873,0 1.4257,-0.63835 1.4257,-1.42567 l 0,-10.81869 c 1.0243,0.0563 2.0478,0.10833 3.067,0.15051 0.02,7.5e-4 0.04,10e-4 0.06,10e-4 0.7601,0 1.3916,-0.60001 1.4235,-1.36671 0.032,-0.78638 -0.5793,-1.4509 -1.366,-1.48353 -3.0051,-0.12431 -6.0472,-0.31212 -9.0418,-0.55738 -0.049,-0.004 -0.098,-0.005 -0.1458,-0.004 z m 30.6133,0.43177 c -0.078,4.1e-4 -0.1551,0.003 -0.2333,0.007 -1.1844,0.0628 -2.3828,0.11634 -3.5611,0.16041 -0.7663,0.0283 -1.3729,0.65805 -1.3729,1.42493 l 0,6.73321 0,5.59391 c 0,0.78732 0.6382,1.42567 1.4257,1.42567 0.7875,0 1.4257,-0.63835 1.4257,-1.42567 l 0,-4.21841 c 1.0443,0.009 2.0069,0.38841 2.7297,1.08179 0.7491,0.71832 1.162,1.70768 1.162,2.78506 0,0.78732 0.6382,1.42567 1.4257,1.42567 0.7875,0 1.4256,-0.63835 1.4256,-1.42567 0,-1.8617 -0.7246,-3.58149 -2.0398,-4.84281 0,-0.002 0,-0.004 -0.01,-0.006 1.2312,-0.87544 2.0468,-2.31521 2.0468,-3.90054 l 0,-0.42225 c 0,-1.22944 -0.4818,-2.36296 -1.3561,-3.19228 -0.8281,-0.78557 -1.909,-1.20999 -3.0714,-1.20374 z m -13.3734,0.31897 c -1.2726,-0.001 -2.4571,0.47747 -3.3479,1.36341 -0.8811,0.87638 -1.3664,2.0461 -1.3664,3.29336 l 0,9.0539 c 0,0.78732 0.6384,1.42567 1.4257,1.42567 0.7873,0 1.4257,-0.63835 1.4257,-1.42567 l 0,-4.25723 c 1.0348,0.0141 2.0721,0.0238 3.108,0.0238 0.2016,0 0.4014,-0.002 0.6028,-0.003 l 0,4.27225 c 0,0.78732 0.6382,1.42604 1.4257,1.42604 0.7875,0 1.426,-0.63872 1.426,-1.42604 l 0,-9.05354 c -2e-4,-2.57327 -2.1082,-4.67858 -4.6996,-4.69339 z m 13.4605,2.53383 c 0.3911,0.0158 0.7512,0.16247 1.0225,0.42005 0.3008,0.28538 0.4666,0.68441 0.4666,1.12354 l 0,0.42188 -4e-4,0 c 0,0.98982 -0.8283,1.86977 -1.8091,1.92152 -0.6892,0.0366 -1.3855,0.0703 -2.0823,0.10071 l 0,-3.87893 c 0.7442,-0.0321 1.4914,-0.0679 2.2332,-0.1073 0.057,-0.003 0.1137,-0.004 0.1695,-0.001 z m -13.4762,0.31751 c 1.0275,0.006 1.8636,0.83199 1.8636,1.84169 l 0,1.93141 c -1.2351,0.003 -2.4752,-0.003 -3.7108,-0.0205 l 0,-1.94716 c 0,-0.48281 0.1868,-0.93418 0.5259,-1.27149 0.3487,-0.34688 0.815,-0.52944 1.3213,-0.53394 z m -39.5259003,18.7029 c 0.9514,0.11794 1.9029,0.23145 2.8550003,0.34095 l 0,39.97882 -2.8550003,0 0,-40.31977 z"
     id="path4321"
     inkscape:connector-curvature="0" />
</svg>
