<?xml version="1.0" encoding="UTF-8" standalone="no"?>
<!-- Created with Inkscape (http://www.inkscape.org/) -->

<svg
   xmlns:dc="http://purl.org/dc/elements/1.1/"
   xmlns:cc="http://creativecommons.org/ns#"
   xmlns:rdf="http://www.w3.org/1999/02/22-rdf-syntax-ns#"
   xmlns:svg="http://www.w3.org/2000/svg"
   xmlns="http://www.w3.org/2000/svg"
   xmlns:sodipodi="http://sodipodi.sourceforge.net/DTD/sodipodi-0.dtd"
   xmlns:inkscape="http://www.inkscape.org/namespaces/inkscape"
   width="96"
   height="96"
   viewBox="0 0 96.000001 96.000002"
   id="svg2"
   version="1.1"
   inkscape:version="0.91 r13725"
   sodipodi:docname="update.svg">
  <defs
     id="defs4" />
  <sodipodi:namedview
     id="base"
     pagecolor="#ffffff"
     bordercolor="#666666"
     borderopacity="1.0"
     inkscape:pageopacity="0.0"
     inkscape:pageshadow="2"
     inkscape:zoom="0.35"
     inkscape:cx="-282.14286"
     inkscape:cy="520"
     inkscape:document-units="px"
     inkscape:current-layer="svg2"
     showgrid="false"
     units="px"
     inkscape:window-width="1858"
     inkscape:window-height="1177"
     inkscape:window-x="1912"
     inkscape:window-y="-8"
     inkscape:window-maximized="1" />
  <metadata
     id="metadata7">
    <rdf:RDF>
      <cc:Work
         rdf:about="">
        <dc:format>image/svg+xml</dc:format>
        <dc:type
           rdf:resource="http://purl.org/dc/dcmitype/StillImage" />
        <dc:title></dc:title>
      </cc:Work>
    </rdf:RDF>
  </metadata>
  <path
     style="fill:#b3b3b3;fill-opacity:1;fill-rule:nonzero;stroke:#ffffff;stroke-width:0.10229089"
     d="m 71.974425,4.84596 c -13.24107,0 -23.97443,10.73335 -23.97443,23.97442 0,13.24108 10.73336,23.97443 23.97443,23.97443 13.24108,0 23.97443,-10.73335 23.97443,-23.97443 C 95.933655,15.5857 85.209105,4.86114 71.974425,4.84596 Z m 0,3.19654 c 11.47536,0 20.77789,9.30253 20.77789,20.77788 -0.0128,11.46977 -9.30812,20.7651 -20.77789,20.77789 -11.47536,0 -20.77788,-9.30253 -20.77788,-20.77789 0,-11.47535 9.30252,-20.77788 20.77788,-20.77788 z m 3.35641,2.92181 -2.58489,1.88068 1.27927,1.74607 c -4.13279,-0.61575 -8.32854,0.60379 -11.48677,3.33848 -3.15943,2.73468 -4.9668,6.7129 -4.94882,10.89084 -0.006,2.95645 0.90402,5.84135 2.60501,8.25877 l 2.61708,-1.83678 c -2.39624,-3.41756 -2.69021,-7.88346 -0.76347,-11.58591 1.92595,-3.70205 5.75263,-6.02437 9.92618,-6.02397 0.70885,0.008 1.41443,0.082 2.10969,0.22388 l -2.36211,1.48597 1.70363,2.70597 5.39439,-3.39628 c 0.3744,-0.23615 0.63387,-0.617 0.71738,-1.05173 0.0839,-0.43514 -0.0171,-0.88475 -0.27803,-1.24196 l -3.92854,-5.39403 z m 8.35022,9.4122 -2.61086,1.83679 c 2.39584,3.41635 2.69101,7.88382 0.76346,11.58627 -1.92674,3.70205 -5.75256,6.02444 -9.92691,6.02324 -0.70724,-0.008 -1.41303,-0.0829 -2.10749,-0.22352 l 2.36101,-1.48852 -1.70326,-2.70342 -5.3944,3.39628 c -0.3744,0.23575 -0.63423,0.61547 -0.71774,1.051 -0.0831,0.43434 0.0168,0.88428 0.27729,1.2427 l 3.92819,5.39439 2.58489,-1.88324 -1.27855,-1.74534 c 5.67475,0.81154 11.28986,-1.82343 14.29225,-6.70622 3.0016,-4.88359 2.81822,-11.08302 -0.46788,-15.78041 z m -70.84338,2.05079 c -4.41129,0.006 -7.98612,3.58006 -7.99172,7.99135 l 0,47.94886 -3.19654,0 c -0.88306,0 -1.59827,0.71521 -1.59827,1.59827 l 0,4.79481 c 0,3.53064 2.86245,6.39345 6.39308,6.39345 l 76.7181,0 c 3.53063,0 6.39345,-2.86281 6.39345,-6.39345 l 0,-4.79481 c 0,-0.88306 -0.71522,-1.59827 -1.59828,-1.59827 l -3.19654,0 0,-23.97443 -3.1969,0 0,23.97443 -3.19655,0 0,-22.37616 -3.19654,0 0,22.37616 -20.58912,0 c -1.70219,-0.006 -3.25929,0.95812 -4.01488,2.48209 -0.21817,0.43913 -0.66642,0.71525 -1.15709,0.71445 l -9.21283,0 c -0.49068,7.5e-4 -0.93893,-0.27532 -1.15709,-0.71445 -0.7556,-1.52397 -2.3127,-2.48769 -4.01489,-2.48209 l -20.58912,0 0,-46.35058 30.36751,0 0,-3.19655 -31.96578,0 c -0.88306,0 -1.59864,0.71522 -1.59864,1.59827 l 0,47.94886 -3.19654,0 0,-47.94886 c 0,-2.64757 2.1476,-4.79481 4.79518,-4.79481 l 31.96578,0 0,-3.19654 -31.96578,0 z m 4.79481,12.78617 0,3.19654 3.19654,0 0,-3.19654 -3.19654,0 z m 6.39309,0 0,3.19654 3.19654,0 0,-3.19654 -3.19654,0 z m 6.39308,0 0,3.19654 3.19654,0 0,-3.19654 -3.19654,0 z m -11.1879,6.39345 c -0.88305,0 -1.59827,0.71521 -1.59827,1.59827 l 0,9.58962 c 0,0.88306 0.71522,1.59827 1.59827,1.59827 l 38.35887,0 0,-3.19654 -36.7606,0 0,-6.39308 27.17097,0 0,-3.19654 -28.76924,0 z m 0,15.9827 c -0.88305,0 -1.59827,0.71522 -1.59827,1.59827 l 0,7.99172 c 0,0.88306 0.71522,1.59828 1.59827,1.59828 l 7.99136,0 c 0.88306,0 1.59827,-0.71522 1.59827,-1.59828 l 0,-7.99172 c 0,-0.88305 -0.71521,-1.59827 -1.59827,-1.59827 l -7.99136,0 z m 14.38444,0 c -0.88306,0 -1.59827,0.71522 -1.59827,1.59827 l 0,7.99172 c 0,0.88306 0.71521,1.59828 1.59827,1.59828 l 7.99172,0 c 0.88306,0 1.59827,-0.71522 1.59827,-1.59828 l 0,-7.99172 c 0,-0.88305 -0.71521,-1.59827 -1.59827,-1.59827 l -7.99172,0 z m 14.3848,0 c -0.88305,0 -1.59827,0.71522 -1.59827,1.59827 l 0,7.99172 c 0,0.88306 0.71522,1.59828 1.59827,1.59828 l 7.99136,0 c 0.88306,0 1.59827,-0.71522 1.59827,-1.59828 l 0,-7.99172 c 0,-0.88305 -0.71521,-1.59827 -1.59827,-1.59827 l -7.99136,0 z m 14.38481,0 c -0.88306,0 -1.59827,0.71522 -1.59827,1.59827 l 0,7.99172 c 0,0.88306 0.71521,1.59828 1.59827,1.59828 l 7.99135,0 c 0.88306,0 1.59827,-0.71522 1.59827,-1.59828 l 0,-7.99172 c 0,-0.88305 -0.71521,-1.59827 -1.59827,-1.59827 l -7.99135,0 z m -41.55578,3.19655 4.79482,0 0,4.79517 -4.79482,0 0,-4.79517 z m 14.38444,0 4.79518,0 0,4.79517 -4.79518,0 0,-4.79517 z m 14.3848,0 4.79482,0 0,4.79517 -4.79482,0 0,-4.79517 z m 14.38481,0 4.79481,0 0,4.79517 -4.79481,0 0,-4.79517 z m -46.35059,11.18826 0,3.19654 11.1879,0 0,-3.19654 -11.1879,0 z m 14.38444,0 0,3.19654 11.18826,0 0,-3.19654 -11.18826,0 z m 14.3848,0 0,3.19654 11.1879,0 0,-3.19654 -11.1879,0 z m 14.38481,0 0,3.19654 11.18789,0 0,-3.19654 -11.18789,0 z m -57.53885,9.58962 31.77738,0 c 0.49068,-7.5e-4 0.93893,0.27532 1.1571,0.71445 0.75559,1.52397 2.31269,2.48769 4.01488,2.48209 l 9.21283,0 c 1.70218,0.006 3.25928,-0.95812 4.01488,-2.48209 0.21817,-0.43913 0.66641,-0.71525 1.15709,-0.71445 l 31.77738,0 0,3.19654 c 0,1.76572 -1.43119,3.19691 -3.1969,3.19691 l -76.7181,0 c -1.76572,0 -3.19654,-1.43119 -3.19654,-3.19691 l 0,-3.19654 z"
     id="path4244"
     inkscape:connector-curvature="0" />
</svg>
