<?xml version="1.0" encoding="iso-8859-1"?>
<!-- Generator: Adobe Illustrator 19.0.0, SVG Export Plug-In . SVG Version: 6.00 Build 0)  -->
<svg version="1.1" id="Capa_1" xmlns="http://www.w3.org/2000/svg" xmlns:xlink="http://www.w3.org/1999/xlink" x="0px" y="0px"
	 viewBox="0 0 56 56" style="enable-background:new 0 0 56 56;" xml:space="preserve">
<g>
	<g>
		<path d="M24,22.25c0.005,0,0.01,0,0.016,0c0.484-0.008,0.894-0.361,0.972-0.84l3-18.5c0.049-0.303-0.044-0.611-0.251-0.837
			c-0.208-0.226-0.512-0.347-0.813-0.32l-6.5,0.5c-0.285,0.022-0.546,0.164-0.719,0.391c-0.173,0.227-0.241,0.518-0.186,0.797
			l3.5,18C23.11,21.912,23.522,22.25,24,22.25z M25.81,3.845l-1.899,11.708L21.696,4.162L25.81,3.845z"/>
		<path d="M31.376,25.532c0.182,0.146,0.403,0.219,0.624,0.219c0.188,0,0.377-0.053,0.543-0.16l8.5-5.5
			c0.225-0.146,0.381-0.375,0.436-0.637c0.055-0.263,0.001-0.535-0.147-0.758l-3-4.5c-0.166-0.249-0.436-0.411-0.733-0.44
			c-0.301-0.023-0.594,0.077-0.806,0.288l-8,8c-0.201,0.201-0.307,0.479-0.292,0.763c0.016,0.283,0.152,0.548,0.374,0.726
			L31.376,25.532z M37.345,16.32l1.761,2.642l-7.043,4.558l-1.065-0.852L37.345,16.32z"/>
		<path d="M54.991,17.119c-0.045-0.337-0.258-0.628-0.565-0.773c-0.308-0.144-0.668-0.124-0.956,0.058l-20,12.5
			c-0.416,0.26-0.582,0.781-0.393,1.233c0.158,0.379,0.526,0.614,0.922,0.614c0.077,0,0.155-0.009,0.232-0.027l21-5
			c0.5-0.119,0.828-0.596,0.76-1.104L54.991,17.119z M39.705,27.364l13.509-8.442l0.675,5.065L39.705,27.364z"/>
		<path d="M35,40.25c0.145,0,0.291-0.031,0.426-0.095l8.5-4c0.414-0.195,0.643-0.646,0.556-1.095s-0.467-0.782-0.923-0.809l-8.5-0.5
			c-0.273-0.011-0.544,0.081-0.745,0.271C34.114,34.211,34,34.475,34,34.75v4.5c0,0.343,0.175,0.661,0.464,0.845
			C34.627,40.198,34.813,40.25,35,40.25z M36,35.811l3.52,0.207L36,37.674V35.811z"/>
		<path d="M15.668,24.805c0.191,0.287,0.507,0.445,0.833,0.445c0.151,0,0.304-0.034,0.447-0.105l3-1.5
			c0.321-0.161,0.532-0.481,0.551-0.841c0.02-0.358-0.155-0.7-0.458-0.895l-7-4.5c-0.398-0.258-0.922-0.198-1.253,0.14
			c-0.332,0.338-0.382,0.862-0.119,1.256L15.668,24.805z M17.482,22.642l-0.639,0.319l-0.852-1.278L17.482,22.642z"/>
		<path d="M17.283,28.128c-0.305-0.385-0.844-0.492-1.272-0.25l-12.5,7c-0.226,0.126-0.395,0.336-0.469,0.585l-3,10
			c-0.134,0.447,0.059,0.927,0.465,1.157C0.662,46.708,0.831,46.75,1,46.75c0.274,0,0.544-0.112,0.739-0.326l15.5-17
			C17.57,29.062,17.589,28.513,17.283,28.128z M3.22,41.831l1.622-5.406l6.758-3.784L3.22,41.831z"/>
		<path d="M21.454,31.45c-0.134-0.425-0.506-0.681-0.978-0.699c-0.445,0.011-0.83,0.315-0.943,0.745l-2.5,9.5
			c-0.079,0.3-0.014,0.62,0.175,0.865c0.19,0.246,0.482,0.39,0.792,0.39h5.5c0.319,0,0.618-0.152,0.807-0.409
			s0.243-0.588,0.147-0.892L21.454,31.45z M19.298,40.25l1.29-4.902l1.548,4.902C22.136,40.25,19.298,40.25,19.298,40.25z"/>
		<path d="M26.399,29.812c-0.217-0.443-0.726-0.661-1.197-0.517c-0.472,0.147-0.765,0.617-0.691,1.105l3.5,23
			c0.046,0.3,0.225,0.563,0.486,0.714c0.155,0.09,0.328,0.136,0.502,0.136c0.121,0,0.243-0.022,0.359-0.066l6.5-2.5
			c0.262-0.101,0.469-0.307,0.572-0.567s0.091-0.553-0.032-0.805L26.399,29.812z M29.802,51.871L27.475,36.58l6.648,13.629
			L29.802,51.871z"/>
		<path d="M41.048,12.372l-0.472,2.754c-0.064,0.375,0.089,0.754,0.397,0.977c0.309,0.225,0.716,0.254,1.053,0.076l2.474-1.3
			l2.474,1.3c0.146,0.077,0.306,0.115,0.465,0.115c0.207,0,0.414-0.064,0.588-0.191c0.308-0.224,0.462-0.602,0.397-0.977
			l-0.472-2.754l2.001-1.951c0.273-0.266,0.371-0.663,0.253-1.024c-0.118-0.362-0.431-0.626-0.807-0.681l-2.766-0.402l-1.236-2.506
			C45.229,5.466,44.881,5.25,44.5,5.25c-0.38,0-0.728,0.216-0.896,0.558l-1.237,2.506l-2.766,0.402
			c-0.376,0.055-0.689,0.318-0.807,0.681c-0.118,0.361-0.02,0.759,0.253,1.024L41.048,12.372z M43.174,10.217
			c0.326-0.047,0.607-0.252,0.752-0.547L44.5,8.51l0.572,1.16c0.146,0.295,0.427,0.5,0.753,0.547l1.281,0.186l-0.926,0.903
			c-0.236,0.229-0.344,0.561-0.288,0.885l0.219,1.275l-1.146-0.602C44.82,12.788,44.66,12.75,44.5,12.75s-0.32,0.038-0.465,0.115
			l-1.146,0.602l0.219-1.275c0.056-0.324-0.052-0.655-0.288-0.885l-0.926-0.903L43.174,10.217z"/>
		<path d="M18.761,46.957l-0.868-2.896c-0.105-0.35-0.393-0.615-0.75-0.691c-0.359-0.075-0.729,0.05-0.966,0.327l-1.97,2.292
			l-2.896,0.867c-0.35,0.104-0.615,0.393-0.691,0.75c-0.076,0.357,0.049,0.729,0.326,0.967l2.292,1.97l0.868,2.896
			c0.105,0.35,0.393,0.615,0.75,0.691c0.069,0.015,0.139,0.021,0.208,0.021c0.288,0,0.566-0.125,0.758-0.349l1.97-2.292l2.896-0.867
			c0.35-0.104,0.615-0.393,0.691-0.75c0.076-0.357-0.049-0.729-0.326-0.967L18.761,46.957z M16.939,49.679
			c-0.183,0.055-0.347,0.161-0.471,0.307l-0.97,1.128l-0.427-1.425c-0.055-0.183-0.161-0.347-0.306-0.472l-1.128-0.969l1.425-0.427
			c0.183-0.055,0.347-0.161,0.471-0.307l0.97-1.128l0.427,1.425c0.055,0.183,0.161,0.347,0.306,0.472l1.128,0.969L16.939,49.679z"/>
		<path d="M43.5,39.25c-2.206,0-4,1.794-4,4s1.794,4,4,4s4-1.794,4-4S45.706,39.25,43.5,39.25z M43.5,45.25c-1.103,0-2-0.897-2-2
			s0.897-2,2-2s2,0.897,2,2S44.603,45.25,43.5,45.25z"/>
		<path d="M7.5,15.25c2.206,0,4-1.794,4-4s-1.794-4-4-4s-4,1.794-4,4S5.295,15.25,7.5,15.25z M7.5,9.25c1.103,0,2,0.898,2,2
			s-0.897,2-2,2s-2-0.898-2-2S6.397,9.25,7.5,9.25z"/>
	</g>
</g>
<g>
</g>
<g>
</g>
<g>
</g>
<g>
</g>
<g>
</g>
<g>
</g>
<g>
</g>
<g>
</g>
<g>
</g>
<g>
</g>
<g>
</g>
<g>
</g>
<g>
</g>
<g>
</g>
<g>
</g>
</svg>
