<?xml version="1.0" encoding="iso-8859-1"?>
<!-- Generator: Adobe Illustrator 19.0.0, SVG Export Plug-In . SVG Version: 6.00 Build 0)  -->
<svg version="1.1" id="Layer_1" xmlns="http://www.w3.org/2000/svg" xmlns:xlink="http://www.w3.org/1999/xlink" x="0px" y="0px"
	 viewBox="0 0 198.728 198.728" style="enable-background:new 0 0 198.728 198.728;" xml:space="preserve">
<g>
	<g>
		<g>
			<path d="M76.667,62.555c-12.593,5.09-21.471,17.318-24.286,33.168c-15.934-2.239-30.317,2.437-39.054,12.851
				c-16.047,19.131-8.592,51.913,16.626,73.07c12.042,10.108,26.34,16.139,40.252,16.984c1.13,0.068,2.244,0.1,3.341,0.1
				c12.935,0,23.94-4.696,31.25-13.406c2.111-2.513,5.657-6.361,7.004-7.816c1.801-0.832,6.554-3.011,9.594-4.246
				c11.439-4.616,19.73-14.841,23.341-28.781c3.498-13.498,2.179-28.958-3.711-43.537C128.693,70.423,99.819,53.198,76.667,62.555z
				 M136.767,142.412c-2.943,11.351-9.497,19.598-18.455,23.216c-4.001,1.616-10.446,4.628-10.719,4.753l-0.72,0.338l-0.543,0.583
				c-0.205,0.221-5.066,5.424-7.841,8.725l-0.004,0.004c-6.204,7.398-16.043,11.134-27.78,10.374
				c-12.163-0.736-24.756-6.087-35.459-15.066c-21.736-18.243-28.741-45.821-15.609-61.474c5.709-6.803,14.692-10.45,25.078-10.45
				c3.305,0,6.759,0.37,10.289,1.126l4.483,0.961l0.474-4.56c1.54-14.869,8.938-26.364,19.79-30.755
				c18.97-7.631,43.015,7.531,53.641,33.843C138.624,116.98,139.822,130.615,136.767,142.412z"/>
			<path d="M36.938,87.303l2.207,1.005l1.95-1.444c9.606-7.113,14.624-18.142,13.43-29.497
				c-1.194-11.359-8.396-21.101-19.268-26.063l-2.207-1.005l-1.95,1.444c-9.602,7.113-14.62,18.138-13.425,29.497
				S26.07,82.341,36.938,87.303z M34.063,39.937c6.94,3.965,11.471,10.651,12.275,18.291c0.8,7.64-2.239,15.118-8.207,20.442
				c-6.94-3.968-11.467-10.651-12.271-18.29C25.061,52.736,28.096,45.261,34.063,39.937z"/>
			<path d="M107.403,45.293c0.917,0,1.838-0.306,2.601-0.929l45.29-37.056c1.761-1.444,2.022-4.037,0.583-5.794
				c-1.447-1.765-4.037-2.022-5.794-0.583l-45.29,37.056c-1.761,1.444-2.022,4.037-0.583,5.794
				C105.026,44.779,106.208,45.293,107.403,45.293z"/>
			<path d="M141.266,43.781c0.816,0.997,1.999,1.512,3.193,1.512c0.917,0,1.838-0.306,2.601-0.929l45.29-37.056
				c1.761-1.444,2.022-4.037,0.583-5.794c-1.444-1.765-4.037-2.022-5.794-0.583l-45.29,37.056
				C140.088,39.431,139.827,42.024,141.266,43.781z"/>
			<path d="M187.139,29.753l-45.29,37.056c-1.761,1.444-2.022,4.037-0.583,5.794c0.816,0.997,1.999,1.512,3.193,1.512
				c0.917,0,1.838-0.306,2.601-0.929l45.29-37.056c1.761-1.444,2.022-4.037,0.583-5.794
				C191.49,28.571,188.896,28.314,187.139,29.753z"/>
		</g>
	</g>
</g>
<g>
</g>
<g>
</g>
<g>
</g>
<g>
</g>
<g>
</g>
<g>
</g>
<g>
</g>
<g>
</g>
<g>
</g>
<g>
</g>
<g>
</g>
<g>
</g>
<g>
</g>
<g>
</g>
<g>
</g>
</svg>
