<?xml version="1.0" encoding="iso-8859-1"?>
<!-- Generator: Adobe Illustrator 19.0.0, SVG Export Plug-In . SVG Version: 6.00 Build 0)  -->
<svg version="1.1" id="Layer_1" xmlns="http://www.w3.org/2000/svg" xmlns:xlink="http://www.w3.org/1999/xlink" x="0px" y="0px"
	 viewBox="0 0 228 228" style="enable-background:new 0 0 228 228;" xml:space="preserve">
<g>
	<g>
		<g>
			<path d="M194.002,80.788L193.998,80c0-44.113-35.889-80-80-80c-44.111,0-80,35.887-80,80c0,3.648,0.58,7.106,1.141,10.449
				l0.358,2.176c0.022,0.141,0.051,0.277,0.088,0.414c0.242,0.902,5.924,21.922,11.094,30.195l27.629,66.305
				c0.621,1.488,2.076,2.461,3.691,2.461h72c1.615,0,3.07-0.973,3.692-2.461l27.627-66.301c4.496-7.137,8.199-20.226,10.203-27.305
				l0.801-2.801C194.015,87.417,194.008,84.491,194.002,80.788z M184.648,90.863c0,0,0,0,0,0.004l-0.826,2.887
				c-1.92,6.781-5.488,19.402-9.418,25.445c-0.133,0.203-0.246,0.418-0.338,0.641L147.332,184H80.664l-26.735-64.16
				c-0.092-0.223-0.205-0.438-0.338-0.641c-3.725-5.73-8.594-22-10.23-28.047l-0.332-2.024c-0.531-3.16-1.031-6.144-1.031-9.129
				c0-39.699,32.299-72,72-72s72,32.301,72,72L186,80.804C186.006,84.328,186.009,86.266,184.648,90.863z"/>
			<path d="M150.109,196H77.998c-2.209,0-4,1.789-4,4s1.791,4,4,4h72.111c2.209,0,4-1.789,4-4S152.318,196,150.109,196z"/>
			<path d="M150.109,208H77.998c-2.209,0-4,1.789-4,4s1.791,4,4,4h72.111c2.209,0,4-1.789,4-4S152.318,208,150.109,208z"/>
			<path d="M150.109,220H77.998c-2.209,0-4,1.789-4,4s1.791,4,4,4h72.111c2.209,0,4-1.789,4-4S152.318,220,150.109,220z"/>
			<polygon points="117.998,48 109.998,48 109.998,76 81.998,76 81.998,84 109.998,84 109.998,112 117.998,112 117.998,84 
				145.998,84 145.998,76 117.998,76 			"/>
			<path d="M113.998,16c-2.209,0-4,1.789-4,4s1.791,4,4,4c30.879,0,56,25.121,56,56c0,2.211,1.791,4,4,4c2.209,0,4-1.789,4-4
				C177.998,44.711,149.287,16,113.998,16z"/>
		</g>
	</g>
</g>
<g>
</g>
<g>
</g>
<g>
</g>
<g>
</g>
<g>
</g>
<g>
</g>
<g>
</g>
<g>
</g>
<g>
</g>
<g>
</g>
<g>
</g>
<g>
</g>
<g>
</g>
<g>
</g>
<g>
</g>
</svg>
