<?xml version="1.0" encoding="iso-8859-1"?>
<!-- Generator: Adobe Illustrator 19.0.0, SVG Export Plug-In . SVG Version: 6.00 Build 0)  -->
<svg version="1.1" id="Layer_1" xmlns="http://www.w3.org/2000/svg" xmlns:xlink="http://www.w3.org/1999/xlink" x="0px" y="0px"
	 viewBox="0 0 216 216" style="enable-background:new 0 0 216 216;" xml:space="preserve">
<g>
	<g>
		<g>
			<path d="M145.717,48.469c-1.236-0.586-2.692-0.5-3.854,0.23c-1.16,0.734-1.863,2.012-1.863,3.383v18.219
				c0,1.379,0.711,2.66,1.879,3.391C160.74,85.484,172,105.789,172,128c0,35.289-28.711,64-64,64s-64-28.711-64-64
				c0-22.211,11.26-42.516,30.121-54.308C75.289,72.961,76,71.68,76,70.301V52.082c0-1.371-0.703-2.648-1.863-3.383
				c-1.162-0.73-2.615-0.816-3.854-0.23C39.738,62.984,20,94.199,20,128c0,48.524,39.476,88,88,88s88-39.476,88-88
				C196,94.199,176.262,62.984,145.717,48.469z M108,208c-44.111,0-80-35.887-80-80c0-28.566,15.506-55.102,40-69.297v9.422
				C47.92,81.539,36,103.758,36,128c0,39.699,32.299,72,72,72s72-32.301,72-72c0-24.242-11.92-46.461-32-59.875v-9.422
				c24.494,14.196,40,40.731,40,69.297C188,172.113,152.111,208,108,208z"/>
			<path d="M108,104c8.822,0,16-7.16,16-15.965v-72.07C124,7.16,116.822,0,108,0S92,7.16,92,15.965v72.07
				C92,96.84,99.178,104,108,104z M100,15.965c0-4.39,3.588-7.965,8-7.965s8,3.574,8,7.965v72.07c0,4.39-3.588,7.965-8,7.965
				s-8-3.574-8-7.965V15.965z"/>
		</g>
	</g>
</g>
<g>
</g>
<g>
</g>
<g>
</g>
<g>
</g>
<g>
</g>
<g>
</g>
<g>
</g>
<g>
</g>
<g>
</g>
<g>
</g>
<g>
</g>
<g>
</g>
<g>
</g>
<g>
</g>
<g>
</g>
</svg>
