<?xml version="1.0" encoding="iso-8859-1"?>
<!-- Generator: Adobe Illustrator 19.0.0, SVG Export Plug-In . SVG Version: 6.00 Build 0)  -->
<svg version="1.1" id="Layer_1" xmlns="http://www.w3.org/2000/svg" xmlns:xlink="http://www.w3.org/1999/xlink" x="0px" y="0px"
	 viewBox="0 0 181.86 181.86" style="enable-background:new 0 0 181.86 181.86;" xml:space="preserve">
<g>
	<g>
		<path d="M159.107,111.086c-1.155-10.392-7.459-19.321-16.407-24.448c-1.407-36.189-32.795-65.241-71.283-65.241
			C32.037,21.398,0,51.791,0,89.148c0,1.971,1.595,3.566,3.566,3.566s3.566-1.595,3.566-3.566c0-33.426,28.84-60.619,64.285-60.619
			c33.428,0,60.954,24.192,63.983,54.982c-2.792-0.835-5.738-1.32-8.785-1.434c-3.677-25.932-27.324-45.866-55.197-45.866
			c-30.745,0-55.757,23.749-55.757,52.937c0,1.971,1.595,3.566,3.566,3.566s3.566-1.595,3.566-3.566
			c0-25.257,21.813-45.805,48.626-45.805c24.136,0,44.632,16.991,48.072,39.183c-2.874,0.47-5.633,1.282-8.231,2.402
			c-2.218-19.042-19.231-33.907-39.841-33.907c-22.112,0-40.101,17.105-40.101,38.127c0,1.971,1.595,3.566,3.566,3.566
			c1.971,0,3.566-1.595,3.566-3.566c0-17.091,14.789-30.995,32.97-30.995c18.11,0,32.845,13.799,32.959,30.798
			c-4.541,3.389-8.24,7.825-10.53,13.123c-0.052,0-0.101,0-0.153,0c-16.272,0-29.508,13.097-29.508,29.195
			s13.236,29.195,29.508,29.195c0.282,0,0.564-0.004,0.843-0.01c0.094,0.007,0.191,0.01,0.286,0.01h63.164
			c0.219,0,0.435-0.021,0.648-0.063c13.062-0.905,23.223-11.655,23.223-24.675C181.856,122.834,171.841,112.214,159.107,111.086z
			 M157.797,153.307c-0.087,0.007-0.174,0.014-0.261,0.024h-62.29c-0.195-0.024-0.397-0.031-0.582-0.021
			c-12.734,0.53-23.348-9.555-23.348-22.042c0-12.167,10.039-22.063,22.377-22.063c0.749,0,1.487,0.035,2.218,0.104
			c1.63,0.188,3.19-0.846,3.719-2.417c3.552-10.614,13.856-17.746,25.646-17.746c4.083,0,7.942,0.89,11.411,2.435
			c0.537,0.569,1.267,0.91,2.079,1.029c7.998,4.409,13.4,12.589,13.4,21.97c0,0.975,0.4,1.908,1.104,2.58
			c0.707,0.672,1.657,1.038,2.629,0.982c0.317-0.014,0.637-0.024,0.961-0.024c9.851,0,17.864,7.898,17.864,17.606
			C174.725,145.104,167.29,152.828,157.797,153.307z"/>
	</g>
</g>
<g>
</g>
<g>
</g>
<g>
</g>
<g>
</g>
<g>
</g>
<g>
</g>
<g>
</g>
<g>
</g>
<g>
</g>
<g>
</g>
<g>
</g>
<g>
</g>
<g>
</g>
<g>
</g>
<g>
</g>
</svg>
