<?xml version="1.0" encoding="iso-8859-1"?>
<!-- Generator: Adobe Illustrator 19.0.0, SVG Export Plug-In . SVG Version: 6.00 Build 0)  -->
<svg version="1.1" id="Layer_1" xmlns="http://www.w3.org/2000/svg" xmlns:xlink="http://www.w3.org/1999/xlink" x="0px" y="0px"
	 viewBox="0 0 184.152 184.152" style="enable-background:new 0 0 184.152 184.152;" xml:space="preserve">
<g>
	<g>
		<g>
			<path d="M121.735,72.589c0.499,0.253,1.038,0.377,1.574,0.377c0.723,0,1.442-0.226,2.049-0.669l45.169-33.008
				c0.896-0.655,1.425-1.697,1.425-2.806c0-1.109-0.529-2.151-1.425-2.806L125.359,0.668c-1.055-0.77-2.453-0.884-3.624-0.292
				c-1.164,0.592-1.9,1.79-1.9,3.098v66.017C119.836,70.799,120.572,71.997,121.735,72.589z M126.785,10.316l35.804,26.166
				l-35.804,26.166V10.316z"/>
			<rect x="22.547" y="22.584" width="90.339" height="6.949"/>
			<rect x="22.547" y="43.432" width="90.339" height="6.949"/>
			<path d="M69.291,111.563c-1.171-0.592-2.565-0.478-3.624,0.292l-45.169,33.008c-0.896,0.655-1.425,1.697-1.425,2.806
				s0.529,2.151,1.425,2.806l45.169,33.008c0.607,0.443,1.327,0.669,2.049,0.669c0.536,0,1.076-0.124,1.574-0.377
				c1.164-0.592,1.9-1.79,1.9-3.098V114.66C71.191,113.352,70.455,112.155,69.291,111.563z M64.242,173.835l-35.804-26.166
				l35.804-26.166V173.835z"/>
			<rect x="78.141" y="133.771" width="90.339" height="6.949"/>
			<rect x="78.141" y="154.618" width="90.339" height="6.949"/>
			<path d="M88.602,92.076c0-1.919-1.554-3.475-3.475-3.475H71.229c-1.92,0-3.475,1.556-3.475,3.475s1.554,3.475,3.475,3.475h13.898
				C87.047,95.55,88.602,93.995,88.602,92.076z"/>
			<path d="M43.432,88.601c-1.92,0-3.475,1.556-3.475,3.475s1.554,3.475,3.475,3.475H57.33c1.92,0,3.475-1.556,3.475-3.475
				s-1.554-3.475-3.475-3.475H43.432z"/>
			<path d="M33.008,92.076c0-1.919-1.554-3.475-3.475-3.475H15.635c-1.92,0-3.475,1.556-3.475,3.475s1.554,3.475,3.475,3.475h13.898
				C31.454,95.55,33.008,93.995,33.008,92.076z"/>
			<path d="M168.517,88.601h-13.898c-1.92,0-3.475,1.556-3.475,3.475s1.554,3.475,3.475,3.475h13.898
				c1.92,0,3.475-1.556,3.475-3.475S170.437,88.601,168.517,88.601z"/>
			<path d="M126.822,88.601c-1.92,0-3.475,1.556-3.475,3.475s1.554,3.475,3.475,3.475h13.898c1.92,0,3.475-1.556,3.475-3.475
				s-1.554-3.475-3.475-3.475H126.822z"/>
			<path d="M95.551,92.076c0,1.919,1.554,3.475,3.475,3.475h13.898c1.92,0,3.475-1.556,3.475-3.475s-1.554-3.475-3.475-3.475H99.025
				C97.105,88.601,95.551,90.157,95.551,92.076z"/>
		</g>
	</g>
</g>
<g>
</g>
<g>
</g>
<g>
</g>
<g>
</g>
<g>
</g>
<g>
</g>
<g>
</g>
<g>
</g>
<g>
</g>
<g>
</g>
<g>
</g>
<g>
</g>
<g>
</g>
<g>
</g>
<g>
</g>
</svg>
